/* XPM */
static char *collectible_1_png[] = {
/* columns rows colors chars-per-pixel */
"48 48 22 1 ",
"  c #222323",
". c #8F2F3C",
"X c #FE1F48",
"o c #FB2C4E",
"O c #F93A54",
"+ c #F6475A",
"@ c #F45360",
"# c #F25E65",
"$ c #F0696A",
"% c #768449",
"& c #7C8E4D",
"* c #7F9B4E",
"= c #AC8D5E",
"- c #85AA51",
"; c #CAB089",
": c #DFDCB4",
"> c #E0D1A8",
", c #E7E4B9",
"< c #EEEBBD",
"1 c #F6F1C0",
"2 c #FCF7C3",
"3 c None",
/* pixels */
"333333333333333333333333333333333333333333333333",
"333333333333333333333333333333333333333333333333",
"333333333333333333333333333333333333333333333333",
"333333333333333333333333333333333333333333333333",
"333333333333333333333333333333333333333333333333",
"333333333333333333333333333333333333333333333333",
"333333333333333333333333333333333333333333333333",
"333333333333333333333333333333333333333333333333",
"333333333333333333333333333333333333333333333333",
"333333333333333333333333333333333333333333333333",
"333333333333333333333333333333333333333333333333",
"33333333333%&>>O33333333333333333333333333333333",
"33333333333%;:$Xoo333333333333333333333333333333",
"3333333333%%>>XXoooO3333333333333333333333333333",
"3333333333%=:;XXooooOO33333333333333333333333333",
"3333333333%;:@XXoooOOOOO+33333333333333333333333",
"333333333%%>>XXXooooOOOO+++333333333333333333333",
"333333333%*:;XXXooooOOOO++++@3333333333333333333",
"333333333%=:;XXXo  oOOOO++++@@@33333333333333333",
"333333333%;:$XXXo.ooOOOO++++@@@###33333333333333",
"333333333%;:#XXXooooOOOO++++@@@###$$333333333333",
"333333333%>:OXXXoooo.OOO++++@@@###$$$$3333333333",
"33333333%%>:OXXXooo  OOO+++++@@###$$$$<233333333",
"33333333%%>:#XXXooo.OOOO.##+ .@###$$$>2<-3333333",
"333333333%;:$XXXooooOOOO .++..@###$$$22;*%333333",
"333333333%;:;XXXooooOOOO.+++@@@###$$<2>-*%333333",
"333333333%=:>XXXooooOOOO++++@@@###$>2<--*%333333",
"333333333%&::$XXooooOOOO++++@@@###>21=*-&%333333",
"333333333%%;:>XXooooOOOO++++@@@#$>11;%*-*%333333",
"3333333333%*::;XooooOOOO++++@@@$<11;%%*-&%333333",
"3333333333%%;::;ooooOOOO++++@$>111;*%%--%3333333",
"33333333333%%;::>$ooOOOO+++$><11,--&%*--%3333333",
"333333333333%%;:,,>;;$$;;>,<<1<;---%%--&33333333",
"3333333333333%%=>,,,,,,<<<<<:;&%--&%&--&33333333",
"33333333333333%%&;>:,,,<,>;-*&%%--%%*--333333333",
"3333333333333333&&&%*=--%%&**%%*-&%%--3333333333",
"333333333333333333%%&**&%%**&%%-*%%%333333333333",
"333333333333333333333**%%%**%%&-&%33333333333333",
"333333333333333333333333333333333333333333333333",
"333333333333333333333333333333333333333333333333",
"333333333333333333333333333333333333333333333333",
"333333333333333333333333333333333333333333333333",
"333333333333333333333333333333333333333333333333",
"333333333333333333333333333333333333333333333333",
"333333333333333333333333333333333333333333333333",
"333333333333333333333333333333333333333333333333",
"333333333333333333333333333333333333333333333333",
"333333333333333333333333333333333333333333333333"
};
