/* XPM */
static char *collectible_1c_png[] = {
/* columns rows colors chars-per-pixel */
"48 48 20 1 ",
"  c #8F2F3C",
". c #FE1F48",
"X c #FB2C4E",
"o c #F93A54",
"O c #F6475A",
"+ c #F45360",
"@ c #F25E65",
"# c #F0696A",
"$ c #768449",
"% c #7C8E4D",
"& c #7F9B4E",
"* c #AC8D5E",
"= c #85AA51",
"- c #CAB089",
"; c #DFDCB4",
": c #E0D1A8",
"> c #E7E4B9",
", c #EEEBBD",
"< c #F6F1C0",
"1 c None",
/* pixels */
"111111111111111111111111111111111111111111111111",
"111111111111111111111111111111111111111111111111",
"111111111111111111111111111111111111111111111111",
"111111111111111111111111111111111111111111111111",
"111111111111111111111111111111111111111111111111",
"111111111111111111111111111111111111111111111111",
"111111111111111111111111111111111111111111111111",
"111111111111111111111111111111111111111111111111",
"111111111111111111111111111111111111111111111111",
"111111111111111111111111111111111111111111111111",
"111111111111111111111111111111111111111111111111",
"111111111111111111111111111111111111111111111111",
"11111111111111111111111111111111-,>-&$1111111111",
"11111111111111111111111111111####>,-=%$111111111",
"111111111111111111111111111@@####:<:*&%$11111111",
"111111111111111111111111+@@@@###@-<:==&%$1111111",
"111111111111111111111O+++++@@@@##-,:===&%1111111",
"111111111111111111OOOOO+++++@@@##-,:*%&&%1111111",
"1111111111111111oooOOOOO++++@@@@@->>*%&=&1111111",
"1111111111111oooooooOOOOOOOO+@@@@->>*$%==&111111",
"1111111111XXXXoooooooOOOOO  O+@@@->>-$%&=&111111",
"11111111-@XXXXoooooooOOO++OO+++@@-,;*%$&==111111",
"1111111--@.XXXXXXoooooOOOOOO++++@-,:=&%%==111111",
"111111%*:-O.XXXXXooooooo  OOO+++#:,:*=%$&=111111",
"111111$*:-#..XX  XXo ooo oOOO+++#>,-==%$$1111111",
"1111111%-:-X...XXXX  oooooOOOOO#:,>*&=&$$1111111",
"1111111%*::#X..XXXXX ooooooOOOO#:,:*%&=%$1111111",
"11111111*-:-#...XXXXXXoooooOOO+->>-%$&=%11111111",
"11111111$*-:#o...XXXXXXoooooOO#:>:=%$%&111111111",
"11111111$%*:-#X...XXXXXXooooO#:>:-&&%$1111111111",
"111111111$*-:-#....XXXXXoooo@-;>-=&&$11111111111",
"1111111111%=-:-#oX..XXXXXXO@#:>:*%%&111111111111",
"11111111111$*::-#@...XXXXo#-:>:*%$$1111111111111",
"111111111111%*-::-#@OoO@#--:>:-&%$11111111111111",
"111111111111$%*-::::----:;;;:-&&%111111111111111",
"11111111111111%%--:;:::;;;:-*%%&1111111111111111",
"111111111111111$%&-----:---*%$111111111111111111",
"1111111111111111$$%%%%*&%%%111111111111111111111",
"111111111111111111111$11$11111111111111111111111",
"111111111111111111111111111111111111111111111111",
"111111111111111111111111111111111111111111111111",
"111111111111111111111111111111111111111111111111",
"111111111111111111111111111111111111111111111111",
"111111111111111111111111111111111111111111111111",
"111111111111111111111111111111111111111111111111",
"111111111111111111111111111111111111111111111111",
"111111111111111111111111111111111111111111111111",
"111111111111111111111111111111111111111111111111"
};
