/* XPM */
static char *collectible_1b_png[] = {
/* columns rows colors chars-per-pixel */
"48 48 20 1 ",
"  c #8F2F3C",
". c #FE1F48",
"X c #FB2C4E",
"o c #F93A54",
"O c #F6475A",
"+ c #F45360",
"@ c #F25E65",
"# c #F0696A",
"$ c #768449",
"% c #7C8E4D",
"& c #7F9B4E",
"* c #AC8D5E",
"= c #85AA51",
"- c #CAB089",
"; c #DFDCB4",
": c #E0D1A8",
"> c #E7E4B9",
", c #EEEBBD",
"< c #F6F1C0",
"1 c None",
/* pixels */
"111111111111111111111111111111111111111111111111",
"111111111111111111111111111111111111111111111111",
"111111111111111111111111111111111111111111111111",
"111111111111111111111111111111111111111111111111",
"111111111111111111111111111111111111111111111111",
"111111111111111111111111111111111111111111111111",
"111111111111111111111111111111111111111111111111",
"111111111111111111111111111111111111111111111111",
"111111111111111111111111111111111111111111111111",
"111111111111111111111111111111111111111111111111",
"111111111111111111111111111111111111111111111111",
"111111111111111111111111111111111111111111111111",
"111111111111111111111111111111111111111111111111",
"111111111111111111111111111111111111111111111111",
"111111111111111111111111111111111111111111111111",
"111111111111111111111111111111111111111111111111",
"111111111:-oXXXooooooOOOO+++@@@@####><-111111111",
"1111111$*:#XXXXXoooooOOOO++++@@@####><-&$1111111",
"1111111$*:-..XXXooooooOOOO+++@@@####,<-&$1111111",
"1111111$*:-o.XXXXXooooOOOO++++@@@###<>-&%$111111",
"1111111$*:-X..XXXXooooOOOOOO++@@@##-<;==%$111111",
"11111111*::o..X  XoooooOOOO  O@@@@#:<-&=&%$11111",
"11111111%::#...X XXooooOO@+O O+@@@#><-%&=%111111",
"1111111$$-:-...XXXX  ooo  OO+++@@@-,>*$&=%111111",
"11111111$*:#o..XXXX  ooo  OOO+++@#:<:%$&=&111111",
"11111111$*:-O...XXX oooooOOOO++++-<,-%$&=&111111",
"111111111&-:@...XXXXXooooOOOO+++#:<:=%$&=&111111",
"111111111$-;-X...XXXXoooooOOOO+#:<>-=&$&==111111",
"111111111$*::#X..XXXXXooooOOOO#:,,-==%$&==111111",
"111111111$%-:-#...XXXXooooOOO+->,:&&=%$%=1111111",
"1111111111$*::-o..XXXXoooooO#:,,:*$&=%$$11111111",
"11111111111%*:;-@..XXXXooo#-:>>:=%$&=%$111111111",
"11111111111$%-:;:#OoXX.+##-;,>-=&%$&=%$111111111",
"111111111111$%-:;:---#--::>,;-&&&%$%=11111111111",
"1111111111111$%*-:;;;>;;>>;-=$$&&$$1111111111111",
"11111111111111$$%*-::;;;:-*&%$$%&111111111111111",
"1111111111111111$$%%**-*%%&&%$111111111111111111",
"1111111111111111111$$%%$$$1&11111111111111111111",
"111111111111111111111111111111111111111111111111",
"111111111111111111111111111111111111111111111111",
"111111111111111111111111111111111111111111111111",
"111111111111111111111111111111111111111111111111",
"111111111111111111111111111111111111111111111111",
"111111111111111111111111111111111111111111111111",
"111111111111111111111111111111111111111111111111",
"111111111111111111111111111111111111111111111111",
"111111111111111111111111111111111111111111111111",
"111111111111111111111111111111111111111111111111"
};
