/* XPM */
static char *result[] = {
/* columns rows colors chars-per-pixel */
"48 48 251 2 ",
"   c #221F1F",
".  c #221F20",
"X  c #242122",
"o  c #252222",
"O  c #252223",
"+  c #262323",
"@  c #262324",
"#  c #272324",
"$  c #272325",
"%  c #272424",
"&  c #272425",
"*  c #282425",
"=  c #282525",
"-  c #282426",
";  c #282526",
":  c #282627",
">  c #292627",
",  c #292628",
"<  c #292728",
"1  c #2A2728",
"2  c #2A2729",
"3  c #2A2829",
"4  c #2B2829",
"5  c #2B2929",
"6  c #2B292A",
"7  c #2B292B",
"8  c #2B2A2B",
"9  c #2C292A",
"0  c #2D292B",
"q  c #2C2A2A",
"w  c #2C2A2B",
"e  c #2D2A2B",
"r  c #2D2B2B",
"t  c #2C2A2C",
"y  c #2C2B2C",
"u  c #2D2B2C",
"i  c #2D2B2D",
"p  c #2E2B2C",
"a  c #2E2C2D",
"s  c #2F2C2D",
"d  c #2F2D2D",
"f  c #2F2C2E",
"g  c #2E2D2E",
"h  c #2F2D2E",
"j  c #2E2D2F",
"k  c #2F2E2F",
"l  c #302D2E",
"z  c #312E2F",
"x  c #312F2F",
"c  c #2F2F31",
"v  c #302E30",
"b  c #312E30",
"n  c #302F30",
"m  c #312F30",
"M  c #302F31",
"N  c #322E30",
"B  c #322F30",
"V  c #322F31",
"C  c #2F3031",
"Z  c #313030",
"A  c #303031",
"S  c #313133",
"D  c #333032",
"F  c #323132",
"G  c #333132",
"H  c #333232",
"J  c #323233",
"K  c #343232",
"L  c #343233",
"P  c #343333",
"I  c #353333",
"U  c #323234",
"Y  c #333335",
"T  c #353134",
"R  c #353334",
"E  c #353434",
"W  c #363434",
"Q  c #363435",
"!  c #363535",
"~  c #343436",
"^  c #353536",
"/  c #353537",
"(  c #373436",
")  c #373536",
"_  c #373437",
"`  c #363537",
"'  c #373636",
"]  c #383437",
"[  c #383637",
"{  c #383737",
"}  c #373738",
"|  c #373639",
" . c #373739",
".. c #383538",
"X. c #393638",
"o. c #393738",
"O. c #383739",
"+. c #3A3739",
"@. c #383839",
"#. c #38383A",
"$. c #39393A",
"%. c #39383B",
"&. c #39393B",
"*. c #3A383A",
"=. c #3B3A3A",
"-. c #3A3A3B",
";. c #39393C",
":. c #3A3A3C",
">. c #3B3A3C",
",. c #3B3B3C",
"<. c #3B3B3D",
"1. c #3D393C",
"2. c #3C3A3C",
"3. c #3D3A3C",
"4. c #3C3B3C",
"5. c #3D3B3D",
"6. c #3C3C3C",
"7. c #3C3C3D",
"8. c #3E3E3E",
"9. c #3F3E3E",
"0. c #3E3E3F",
"q. c #3F3E3F",
"w. c #3F3F3F",
"e. c #403C3F",
"r. c #3E3E40",
"t. c #3F3F42",
"y. c #403D40",
"u. c #413D41",
"i. c #403E40",
"p. c #413E41",
"a. c #413F41",
"s. c gray25",
"d. c #404041",
"f. c #414141",
"g. c #404042",
"h. c #414142",
"j. c #424142",
"k. c #434142",
"l. c #424043",
"z. c #424143",
"x. c gray26",
"c. c #434242",
"v. c #434243",
"b. c #434343",
"n. c #434443",
"m. c #424144",
"M. c #434244",
"N. c #434245",
"B. c #434345",
"V. c #444044",
"C. c #444244",
"Z. c #454345",
"A. c #444444",
"S. c #444445",
"D. c gray27",
"F. c #454446",
"G. c #454546",
"H. c #464447",
"J. c #474447",
"K. c #464547",
"L. c #464646",
"P. c #474647",
"I. c #464448",
"U. c #464548",
"Y. c #474549",
"T. c #474748",
"R. c #474649",
"E. c #47464A",
"W. c #484748",
"Q. c #494749",
"!. c #49474A",
"~. c #49474B",
"^. c #484848",
"/. c #484849",
"(. c #494849",
"). c #4A484A",
"_. c #4A494A",
"`. c #4A484B",
"'. c #4B484B",
"]. c #4A494B",
"[. c #4A484C",
"{. c #4B494C",
"}. c #4B484D",
"|. c #4B494D",
" X c #4C4B4C",
".X c #4C4A4D",
"XX c #4C4B4E",
"oX c #4D4B4F",
"OX c #4E4D4F",
"+X c #4E4E4F",
"@X c #4F4B50",
"#X c #4E4C50",
"$X c #504E51",
"%X c #504F51",
"&X c #514E52",
"*X c #514E53",
"=X c #524F54",
"-X c #515053",
";X c #525053",
":X c #535054",
">X c #535154",
",X c #535055",
"<X c #555156",
"1X c #555157",
"2X c #545256",
"3X c #565257",
"4X c #565357",
"5X c #565457",
"6X c #565258",
"7X c #565358",
"8X c #575359",
"9X c #555458",
"0X c #575458",
"qX c #575459",
"wX c #58545A",
"eX c #59555B",
"rX c #59565B",
"tX c #5A565B",
"yX c #5A565C",
"uX c #5A575C",
"iX c #5B575C",
"pX c #5A575D",
"aX c #5B585D",
"sX c #5D595F",
"dX c #5C5A5F",
"fX c #5D5B60",
"gX c #5E5A60",
"hX c #5F5A61",
"jX c #5F5B61",
"kX c #5D5C60",
"lX c #5D5C61",
"zX c #605C62",
"xX c #605F63",
"cX c #626065",
"vX c #646266",
"bX c #67666B",
"nX c #68666B",
"mX c #69666C",
"MX c #69666D",
"NX c #69676E",
"BX c #6A686D",
"VX c #6B696F",
"CX c #716D75",
"ZX c #757279",
"AX c #76737A",
"SX c #76737B",
"DX c #77747C",
"FX c #78757D",
"GX c #7B7880",
"HX c #7C7981",
"JX c None",
/* pixels */
"JXJXJXJXJXJXJXJXJXJXJXJXJXJXJXJXJXJXJXJXJXJXJXJXJXJXJXJXJXJXJXJXJXJXJXJXJXJXJXJXJXJXJXJXJXJXJXJX",
"JXJXJXJXJXJXJXJXJXJXJXJXJXJXJXJXJXJXJXJXJXJXJXJXJXJXJXJXJXJXJXJXJXJXJXJXJXJXJXJXJXJXJXJXJXJXJXJX",
"JXJXJXJXJXJXJXJXJXJXJXJXJXJXJXJXJXJXJXJXJXJXJXJXJXJXJXJXJXJXJXJXJXJXJXJXJXJXJXJXJXJXJXJXJXJXJXJX",
"JXJXJXJXJXJXJXJXJXJXJXJXJXJXJXJXJXJXJXJXJXJXJXJXJXJXJXJXJXJXJXJXJXJXJXJXJXJXJXJXJXJXJXJXJXJXJXJX",
"JXJXJXJXJXJXJXJXJXJXJXJXJXJXJXJXJXJXJXJXJXJXJXJXJXJXJXJXJXJXJXJXJXJXJXJXJXJXJXJXJXJXJXJXJXJXJXJX",
"JXJXJX  X.SXlX#.6X>Xd.~ $./.tXY.#.6XjXgXgXgXgXgXgXgXgXjX6X#.I.gXgXgXgXgXjX7X#.-.q.r # JXJXJXJXJX",
"JXJXJX  ..AXMX[.rXoXO.k F g.wX,X[.yXgXgXgXgXgXgXgXgXgXgXyX[.*XgXgXgXgXgXgXyX}.F.9.e # JXJXJXJXJX",
"JXJXJX  ..AXZXgXgX~.J 2 u <.8XjXgXgXsXgXgXgXgXgXgXgXgXsXgXgXgXsXsXgXgXgXsXgXgX;X9.e # JXJXJXJXJX",
"JXJXJX  ..AXZXgXsX$X4.q G G.eXjXgXgXsXgXgXgXgXgXgXgXgXsXgXgXgXsXsXgXgXgXsXgXgX;X9.e # JXJXJXJXJX",
"JXJXJX  X.DXNX}.yX>Xs.n ' (.uX,X}.uXjXgXgXgXgXgXgXgXgXjXuX}.=XhXhXgXgXgXjXpX}.F.9.e # JXJXJXJXJX",
"JXJXJX. ] CXdX:.:X%Xf.} ,.W.4XU.:.,XiXrXrXrXrXrXrXrXrXiX,X:.H.tXtXrXrXrXiX,X>.7.w.r # JXJXJXJXJX",
"JXJXJXX D uX2Xh.P.L.b.f.x.S.T.A.x.P./.W.W.W.W.W.W.W.W./.P.x.A.W.W.W.W.W./.P.x.b.q.r # JXJXJXJXJX",
"JXJXJX& 0 1.2.Q E E Q ! ! Q P E ! E R R E R P I E E R R E W E R E E R R R E W ! H 4 - JXJXJXJXJX",
"JXJXJX; > 9 6 1 > ; ; ; ; > 9 6 1 > ; ; ; 4 w 3 > ; ; ; > 9 6 1 > ; ; ; ; > 9 6 1 > ; JXJXJXJXJX",
"JXJXJX& w =.@.j < = JXJX& q =.@.j < * JX; K 6.U 8 ; JX& q =.@.j < = JXJX& q =.@.j 1 ; JXJXJXJXJX",
"JXJXJX+ l '.B.A 2 ; JXJX+ l '.B.A 2 JXJX; 5.XX .y ; JXJXl '.B.A 2 ; JXJX+ l '.B.A 2 ; JXJXJXJXJX",
"JXJXJXO N <X[.M 1 ; JXJXO N <X[.M 1 JXJX; V.8X&.8 ; JXJXN <X[.M 1 ; JXJXO N <X[.M 1 ; JXJXJXJXJX",
"JXJXJXO N <X[.M 1 ; JXJXO N <X[.M 1 JXJX; V.8X&.8 ; JXJXN <X[.M 1 ; JXJXO N <X[.M 1 ; JXJXJXJXJX",
"JXJXJXO N <X[.M 1 ; JXJXO N <X[.M 1 JXJX; V.8X&.8 ; JXJXN <X[.M 1 ; JXJXO N <X[.M 1 ; JXJXJXJXJX",
"JXJXJXO N <X[.M 1 ; JXJXO N <X[.M 1 JXJX; V.8X&.8 ; JXJXN <X[.M 1 ; JXJXO N <X[.M 1 ; JXJXJXJXJX",
"JXJXJXO N <X[.M 1 ; JXJXO N <X[.M 1 JXJX; V.8X&.8 ; JXJXN <X[.M 1 ; JXJXO N <X[.M 1 ; JXJXJXJXJX",
"JXJXJXO N <X[.M 1 ; JXJXo B 1X[.M 1 JXJX; V.qX;.8 ; JXJXB 1X[.M 1 ; JXJXO N <X[.M 1 ; JXJXJXJXJX",
"JXJXJXO N <X[.M 1 ; JXJXO z &XR.M 1 = JX; p.:X%.t ; JXO z &XR.M 1 ; JXJXO B <X[.M 1 ; JXJXJXJXJX",
"JXJXJXO N <X[.M 1 ; ; ; & p c.0.M 2 ; ; ; o.S.` y ; ; & p c.0.M 2 ; ; ; @ B <X[.M 1 ; JXJXJXJXJX",
"JXJXJX@ f Q.m.M 1 a [ p.T f Q.m.M 1 h G 4 3.{. .t 4 H a f !.m.M 1 a [ p.T f Q.m.M 1 ; JXJXJXJXJX",
"JXJXJX@ p j.0.M 1 E ^.0Xy.b <X[.M 1 ) w.e V.8X&.6 u w.E N <X[.M 1 E ^.0Xu.p j.0.M 2 ; JXJXJXJXJX",
"JXJXJXO z &XR.M 1 Q D.^.) N <X[.M 1 ) w.e V.8X&.6 u w.E N <X[.M 1 Q D.^.) z &XR.M 1 ; JXJXJXJXJX",
"JXJXJXo V 3X|.M 1 s Q E u f !.m.M 1 h G 4 3.{. .t 4 H a f !.m.M 1 s Q E e V 6X|.M 1 ; JXJXJXJXJX",
"JXJXJXO z &XR.M 1 ; ; ; & p v.0.M 2 ; ; ; o.S.` y ; ; & p v.0.M 2 ; ; ; % b &XR.M 1 ; JXJXJXJXJX",
"JXJXJX@ p j.0.M 2 ; JXJXO b &XR.M 1 = JX; p.,X%.t ; JXO b &XR.M 1 ; JXJX@ p j.0.M 2 ; JXJXJXJXJX",
"JXJXJX@ h ).M.M 1 ; JXJX@ h ).M.M 1 JXJX; 3..X .t ; JXJXh ).M.M 1 ; JXJX@ h ).M.M 1 ; JXJXJXJXJX",
"JXJXJXO b &XR.M 1 ; JXJX@ p k.0.M 2 JXJX; { S.` y ; JXJXp k.0.M 2 ; JXJXO b &XR.M 1 ; JXJXJXJXJX",
"JXJXJX@ p k.0.M 2 ; JXJXO b &XR.M 1 JXJX; p.,X%.w ; JXJXb &XR.M 1 ; JXJX@ p k.0.M 2 ; JXJXJXJXJX",
"JXJXJX@ h ).M.M 1 ; JXJX+ l `.N.M 1 JXJX; 5.XX .t ; JXJXl `.N.M 1 ; JXJX@ h ).M.M 1 ; JXJXJXJXJX",
"JXJXJXO b &XR.M 1 ; JXJX& r 9.7.M 2 = JX; ! f.^ y ; JX# r 9.7.M 2 ; JXJXO b &XR.M 1 ; JXJXJXJXJX",
"JXJXJX@ p k.0.M 2 ; ; ; & r q.7.M 2 ; ; ; ! f.^ y ; ; & r q.7.M 2 ; ; ; & p v.0.M 2 ; JXJXJXJXJX",
"JXJXJX@ h ).M.M 1 a R L 5 3 q.7.c : r x = R h./ 7 > Z 9 3 q.7.c : e H H e h ).M.M 1 ; JXJXJXJXJX",
"JXJXJXO b &XE.c 1 [ _.+XC.+.q.$.S m a. X3.4.0.~ v ( ].Z.+.q.$.S m i.%X%X*.z &XE.M 1 ; JXJXJXJXJX",
"JXJXJX@ p v.r.c 1 e.zXAXHXVXt.C | @XmXGXFX9XY S l.aXZXHXVXt.C | @XmXHXHX&Xu j.r.M 2 ; JXJXJXJXJX",
"JXJXJX$ r 9.7.M 1 _ #XcXBXxXz.@.0.OXfXbXnX-X-.-.K.5XvXBXxXz.@.0.OXkXbXbXJ.e 8.7.M 2 ; JXJXJXJXJX",
"JXJXJX& e 6.:.M 2 t ~ d.A.b.A.A.A.A.b.b.b.A.A.A.A.n.b.b.b.A.A.A.A.b.n.n.R w 6.:.M 2 ; JXJXJXJXJX",
"JXJXJX* 4 U ~ M 2 t ~ d.A.b.A.A.A.A.b.b.b.n.A.A.A.b.b.b.b.A.A.A.A.b.b.b.E 3 J ~ M 2 ; JXJXJXJXJX",
"JXJXJX; > w i t , 3 g P Q Q Q Q Q Q Q Q Q Q Q Q Q Q Q Q Q Q Q Q Q Q Q Q d > w i t , ; JXJXJXJXJX",
"JXJXJXJX; ; ; ; ; ; ; ; ; ; ; ; ; ; ; ; ; ; ; ; ; ; ; ; ; ; ; ; ; ; ; ; ; ; ; ; ; ; JXJXJXJXJXJX",
"JXJXJXJXJXJXJXJXJXJXJXJXJXJXJXJXJXJXJXJXJXJXJXJXJXJXJXJXJXJXJXJXJXJXJXJXJXJXJXJXJXJXJXJXJXJXJXJX",
"JXJXJXJXJXJXJXJXJXJXJXJXJXJXJXJXJXJXJXJXJXJXJXJXJXJXJXJXJXJXJXJXJXJXJXJXJXJXJXJXJXJXJXJXJXJXJXJX",
"JXJXJXJXJXJXJXJXJXJXJXJXJXJXJXJXJXJXJXJXJXJXJXJXJXJXJXJXJXJXJXJXJXJXJXJXJXJXJXJXJXJXJXJXJXJXJXJX",
"JXJXJXJXJXJXJXJXJXJXJXJXJXJXJXJXJXJXJXJXJXJXJXJXJXJXJXJXJXJXJXJXJXJXJXJXJXJXJXJXJXJXJXJXJXJXJXJX"
};
