/* XPM */
static char *result[] = {
/* columns rows colors chars-per-pixel */
"48 48 256 2 ",
"   c black",
".  c #010101",
"X  c #020202",
"o  c gray1",
"O  c #040404",
"+  c gray2",
"@  c #060606",
"#  c #070707",
"$  c gray3",
"%  c #090909",
"&  c gray4",
"*  c #0B0B0B",
"=  c #0C0C0C",
"-  c gray5",
";  c #0E0E0E",
":  c gray6",
">  c #101010",
",  c #111111",
"<  c gray7",
"1  c #131313",
"2  c gray8",
"3  c #151515",
"4  c #161616",
"5  c gray9",
"6  c #181818",
"7  c #191919",
"8  c gray10",
"9  c #1B1B1B",
"0  c gray11",
"q  c #1D1D1D",
"w  c #1E1E1E",
"e  c gray12",
"r  c #202020",
"t  c gray13",
"y  c #222222",
"u  c #232323",
"i  c gray14",
"p  c #252525",
"a  c gray15",
"s  c #272727",
"d  c #282828",
"f  c gray16",
"g  c #2A2A2A",
"h  c gray17",
"j  c #2C2C2C",
"k  c #2D2D2D",
"l  c gray18",
"z  c #2F2F2F",
"x  c gray19",
"c  c #313131",
"v  c #323232",
"b  c gray20",
"n  c #343434",
"m  c #353535",
"M  c gray21",
"N  c #373737",
"B  c gray22",
"V  c #393939",
"C  c #3A3A3A",
"Z  c gray23",
"A  c #3C3C3C",
"S  c gray24",
"D  c #3E3E3E",
"F  c #3F3F3F",
"G  c gray25",
"H  c #414141",
"J  c gray26",
"K  c #434343",
"L  c #444444",
"P  c gray27",
"I  c #464646",
"U  c gray28",
"Y  c #484848",
"T  c #494949",
"R  c gray29",
"E  c #4B4B4B",
"W  c #4C4C4C",
"Q  c gray30",
"!  c #4E4E4E",
"~  c gray31",
"^  c #505050",
"/  c #515151",
"(  c gray32",
")  c #535353",
"_  c gray33",
"`  c #555555",
"'  c #565656",
"]  c gray34",
"[  c #585858",
"{  c gray35",
"}  c #5A5A5A",
"|  c #5B5B5B",
" . c gray36",
".. c #5D5D5D",
"X. c gray37",
"o. c #5F5F5F",
"O. c #606060",
"+. c gray38",
"@. c #626262",
"#. c gray39",
"$. c #646464",
"%. c #656565",
"&. c gray40",
"*. c #676767",
"=. c #686868",
"-. c DimGray",
";. c #6A6A6A",
":. c gray42",
">. c #6C6C6C",
",. c #6D6D6D",
"<. c gray43",
"1. c #6F6F6F",
"2. c gray44",
"3. c #717171",
"4. c #727272",
"5. c gray45",
"6. c #747474",
"7. c gray46",
"8. c #767676",
"9. c #777777",
"0. c gray47",
"q. c #797979",
"w. c gray48",
"e. c #7B7B7B",
"r. c #7C7C7C",
"t. c gray49",
"y. c #7E7E7E",
"u. c gray50",
"i. c #808080",
"p. c #818181",
"a. c gray51",
"s. c #838383",
"d. c #848484",
"f. c gray52",
"g. c #868686",
"h. c gray53",
"j. c #888888",
"k. c #898989",
"l. c gray54",
"z. c #8B8B8B",
"x. c gray55",
"c. c #8D8D8D",
"v. c #8E8E8E",
"b. c gray56",
"n. c #909090",
"m. c gray57",
"M. c #929292",
"N. c #939393",
"B. c gray58",
"V. c #959595",
"C. c gray59",
"Z. c #979797",
"A. c #989898",
"S. c gray60",
"D. c #9A9A9A",
"F. c #9B9B9B",
"G. c gray61",
"H. c #9D9D9D",
"J. c gray62",
"K. c #9F9F9F",
"L. c #A0A0A0",
"P. c gray63",
"I. c #A2A2A2",
"U. c gray64",
"Y. c #A4A4A4",
"T. c #A5A5A5",
"R. c gray65",
"E. c #A7A7A7",
"W. c gray66",
"Q. c #A9A9A9",
"!. c #AAAAAA",
"~. c gray67",
"^. c #ACACAC",
"/. c gray68",
"(. c #AEAEAE",
"). c #AFAFAF",
"_. c gray69",
"`. c #B1B1B1",
"'. c #B2B2B2",
"]. c gray70",
"[. c #B4B4B4",
"{. c gray71",
"}. c #B6B6B6",
"|. c #B7B7B7",
" X c gray72",
".X c #B9B9B9",
"XX c gray73",
"oX c #BBBBBB",
"OX c #BCBCBC",
"+X c gray74",
"@X c gray",
"#X c gray75",
"$X c #C0C0C0",
"%X c #C1C1C1",
"&X c gray76",
"*X c #C3C3C3",
"=X c gray77",
"-X c #C5C5C5",
";X c #C6C6C6",
":X c gray78",
">X c #C8C8C8",
",X c gray79",
"<X c #CACACA",
"1X c #CBCBCB",
"2X c gray80",
"3X c #CDCDCD",
"4X c #CECECE",
"5X c gray81",
"6X c #D0D0D0",
"7X c gray82",
"8X c #D2D2D2",
"9X c LightGray",
"0X c gray83",
"qX c #D5D5D5",
"wX c gray84",
"eX c #D7D7D7",
"rX c #D8D8D8",
"tX c gray85",
"yX c #DADADA",
"uX c gray86",
"iX c gainsboro",
"pX c #DDDDDD",
"aX c gray87",
"sX c #DFDFDF",
"dX c gray88",
"fX c #E1E1E1",
"gX c #E2E2E2",
"hX c gray89",
"jX c #E4E4E4",
"kX c gray90",
"lX c #E6E6E6",
"zX c #E7E7E7",
"xX c gray91",
"cX c #E9E9E9",
"vX c #EAEAEA",
"bX c gray92",
"nX c #ECECEC",
"mX c gray93",
"MX c #EEEEEE",
"NX c #EFEFEF",
"BX c gray94",
"VX c #F1F1F1",
"CX c gray95",
"ZX c #F3F3F3",
"AX c #F4F4F4",
"SX c gray96",
"DX c #F6F6F6",
"FX c gray97",
"GX c #F8F8F8",
"HX c #F9F9F9",
"JX c gray98",
"KX c #FBFBFB",
"LX c gray99",
"PX c #FDFDFD",
"IX c #FEFEFE",
"UX c white",
/* pixels */
"U / | ............ .( Q [ ................ .( Q [ ................ .( Q [ ................| / U ",
"/ [ *.q.r.0.9.9.0.9.*.O.3.0.0.9.9.9.9.9.0.9.*.O.3.0.0.9.9.9.9.9.0.9.*.O.3.0.0.9.9.9.0.q.6.&.[ / ",
"| *.e.v.Z.A.A.A.S.C.i.7.c.S.A.Z.A.A.A.A.S.C.i.7.c.S.A.Z.A.A.A.A.S.C.i.7.c.S.A.Z.A.A.Z.m.g.8.&.| ",
"..q.v.p.z.H.K.J.L.G.a.8.N.P.L.L.L.L.L.L.P.H.a.8.N.P.L.L.L.L.L.L.P.H.a.8.N.P.L.L.L.L.J.l.t.g.6...",
"..i.D.h.8.2.6.0.r.w.@.{ w.j.h.h.h.h.h.h.g.r.@.{ w.j.h.h.h.h.h.h.g.r.@.{ w.j.h.h.h.h.h.g.l.m.q...",
"..u.K.C.=.H L Q _ _ H A | -.=.=.=.=.=.=.$.[ G Z | -.=.=.=.=.=.=.$.[ G Z | -.=.=.=.*.-.d.J.Z.0...",
"..u.L.Z.*.Z B G T ! D M Q [ ] ] ] ] ] ] ' / S M Q [ ] ] ] ] ] ] ' / S M Q [ ] ] ] ` { y.L.A.0...",
"X.u.L.A.=.A B A K T A n P Q Q W Q Q Q Q Q W A n P Q Q W Q Q Q Q Q W A n P Q Q W W Q ` r.L.S.0...",
"[ 8.N.x.+.V n M B S m x A H H H H H G G H G m x Z H G G H H G G H G m x Z H G G G H E 3.M.c.3.[ ",
"Q +.9.6.( c l x c b c z c v v v v c v b b v x z v b b v c c v b b v x z c b b b v c M ' 7.7.O.Q ",
"( ;.s.y.` c m A H T W L b v V B v x Z G F F G G F F D V c x Z G F F G G F F F F A n c [ a.i.*.( ",
"..t.H.B.O.m F W ` O.*.| V M J L B m R / ~ ~ ~ ~ ~ ~ Q I B m R / ~ ~ ~ ~ ~ ~ ~ ~ R D m &.F.Z.9. .",
"X.u.L.Z.O.m G ! _ { #...C b D K B m E ~ R T T T T T T I V M E ~ R T T T T T T T Y F M =.J.S.0...",
"..u.L.C.O.m F Q ( _ O. .C c C D m n I R U I U U U U U P B n I R U I U U U U U U U F M *.H.S.9...",
"..u.L.C.O.m F Q ) _ O...C x m M x x Z H G G G G G G G F m x A H G G G G G G G G G C n *.H.S.9...",
"..u.L.C.O.m F Q ( ) o.| V k z x z z v v v v v v b b b v x z c b v v v v b b b b b x v =.H.S.0...",
"X.u.L.Z.+.n C I W Q ) ! m c V F I E R C z m v x Z G F F G G F A V B v x Z G F F G V n =.J.S.0...",
"[ 8.N.x. .b B K T T Q U n B U ^ | $.%.T b A N m R / ~ ~ ~ ~ ~ R I L B m R / ~ ~ ^ I N +.m.v.3.[ ",
"Q +.9.5.^ b S R ~ / } ' B B Y ( ' X.%.W v N n m E ~ R T T T T Y U P V M E ~ R T R J m ( 8.7.O.Q ",
"( ;.s.y.` n G Q ) _ O. .C N U / ( { #.W c m v b I R U I U U U U U I B n I R U I U F n [ a.i.*.( ",
"..t.H.B.O.m F Q ( _ O. .C N Y / ) { $.W c v c x A H G G G G G G G F m x A H G G G C n &.F.Z.9. .",
"X.u.L.Z.O.m F Q ( _ O. .C N U ^ ( [ +.R z k l l c b b v v v b b b v x l c v v v v z c =.J.S.0...",
"..u.L.C.O.m F Q ( _ O. .C n G P P T Q D z c M C D G Z z h z Z G D C V V V B B B B n b =.H.S.9...",
"..u.L.C.O.m F Q ) _ O. .C b A F F H K B z M F U Q / R n g b Y ^ Q U P P P P P P I D m *.H.S.9...",
"..u.L.C.O.m F Q ( ) o.| C M L E Q ( { P x M G U T ~ E n g v K R T U U U U U U U U F M *.H.S.0...",
"X.u.L.Z.+.n C I W Q ) ! M B Y / _ } $.W c M G I U Q R n h x A L I U U U U U U U U F M =.J.S.0...",
"[ 8.N.x. .b B K T T Q U n B Y / ) { #.E c M G I U ! E n h l n A G G G G G G G G H C n +.m.v.3.[ ",
"Q +.9.5.^ b S R ~ / } ' B N U / ( { #.E c m F P I W T n h k l c v v v v v v v v v x x ( 8.7.O.Q ",
"( ;.s.y.` n G Q ) _ O. .C N U / ( { #.W x b B Z A F S c k z v M V B v l M V B B B m v [ a.i.*.( ",
"..t.H.B.O.m F Q ( _ O. .C N Y / ) { $.W x c m N N V N z z b B D K L B c S L P P I D m &.F.Z.9. .",
"X.u.L.Z.O.m F Q ( _ O. .C N U ^ ( [ +.R x n S H J U P b l b B Z F K V x V H I I U F M =.J.S.0...",
"..u.L.C.O.m F Q ( _ O. .C n G P P T Q D x M G I U ! E m l b B B A J V x M S H P U F M *.H.S.9...",
"..u.L.C.O.m F Q ) _ O. .C b A F F H K B z M G I U Q R m l b B V A K V z n M B F H C n *.H.S.9...",
"..u.L.C.O.m F Q ( ) o.| C M L E Q ( { P x M G I U Q R m l b N V A J V l l z z c v z c =.H.S.0...",
"X.u.L.Z.+.n C I W Q ) ! M B Y / _ } $.W c M G I U Q R n k z c v n N v k l z x c v z v -.J.S.0...",
"[ 8.N.x. .b B K T T Q U n B Y / ) { #.E c M G I U ! E n j l z z x v z l c v b M B n v +.m.v.3.[ ",
"Q +.9.5.^ b S R ~ / } ' B N U / ( { #.E c m F P I W T n l c m M V S M l c b v n N m c ( 8.7.O.Q ",
"( ;.s.y.` n G Q ) _ O. .C N U / ( { #.W x b B Z A F S c z b B V A K C l c b v v M n v { a.i.*.( ",
"..t.H.B.O.m F Q ( _ O. .C N Y / ) { $.W x c m N N V N x z b B V A J V l c b v v M n b &.F.Z.9. .",
"X.u.L.Z.O.m F Q ( _ O. .C N U ^ ( [ @.E c n S H J U P b l b B V A J V l x v v v m n b =.J.S.0...",
"..u.L.C.O.m G ! ) ` +...C n G P I T ! F x M G I Y ~ E m l b B V A K C l l z z z c z c =.H.S.9...",
"..u.L.Z.o.v V L Y R _ / m l m m m M M x k b C F G P J c j x n m N A m h g h h h h f l *.J.S.9...",
"..u.K.V.@.n v M N B C B v x v v v v v c x v b n m M M c x c v v b n v z z x x x x l b -.G.A.0...",
"..i.D.h.1.@.o.O.O.o._ ~  .+.+.O.O.O.O.+.+.O.` ^ | O.O.+.+.+.+.O.+.O.` /  .+.+.+.+.O.@.5.k.M.q...",
"..q.v.p.h.V.Z.C.Z.B.y.5.x.Z.C.C.C.C.C.C.Z.B.y.5.x.Z.C.C.C.C.C.C.Z.B.y.6.x.Z.C.C.C.Z.V.h.u.h.6...",
"| *.e.v.D.K.L.L.L.H.s.9.N.L.L.L.L.L.L.L.L.H.s.9.N.L.L.L.L.L.L.L.L.H.s.9.N.L.L.L.L.L.K.D.v.0.&.| ",
"/ [ *.q.i.u.u.u.u.t.;.+.8.u.u.u.u.u.u.u.u.t.;.+.8.u.u.u.u.u.u.u.u.t.;.+.8.u.u.u.u.u.u.u.q.*.[ / ",
"U / | ..........X...( Q [ X.............X...( Q [ X.............X...( Q [ X...............| / U "
};
