/* XPM */
static char *player_right_png[] = {
/* columns rows colors chars-per-pixel */
"48 48 97 2 ",
"   c #37291B",
".  c #443D3C",
"X  c #564028",
"o  c #4D4136",
"O  c #46403D",
"+  c #4F473F",
"@  c #52433A",
"#  c #5F4A3C",
"$  c #634A39",
"%  c #6F533B",
"&  c #73553E",
"*  c #74583D",
"=  c #7D5B3D",
"-  c #4D4645",
";  c #4C4846",
":  c #554840",
">  c #5D4D43",
",  c #564C4B",
"<  c #5A4F49",
"1  c #5B544E",
"2  c #535151",
"3  c #5B5553",
"4  c #655345",
"5  c #6B5543",
"6  c #64564A",
"7  c #685749",
"8  c #6C5949",
"9  c #765A42",
"0  c #745D4A",
"q  c #645B56",
"w  c #645D59",
"e  c #7D6047",
"r  c #7C6149",
"t  c #6D6057",
"y  c #6A625D",
"u  c #746355",
"i  c #7A6553",
"p  c #7B6959",
"a  c #6F6B68",
"s  c #726B67",
"d  c #7D6E61",
"f  c #84633F",
"g  c #8B633D",
"h  c #90673F",
"j  c #836343",
"k  c #8A6643",
"l  c #8C6945",
"z  c #84674B",
"x  c #896649",
"c  c #86694C",
"v  c #8E6A48",
"b  c #946D43",
"n  c #996E42",
"m  c #9C7245",
"M  c #96724C",
"N  c #9C764B",
"B  c #9E794E",
"V  c #876C53",
"C  c #906F53",
"Z  c #8D7355",
"A  c #84715D",
"S  c #8B735A",
"D  c #937454",
"F  c #987752",
"G  c #977854",
"H  c #9B7954",
"J  c #91755B",
"K  c #96795E",
"L  c #9C7A5C",
"P  c #A37646",
"I  c #A67846",
"U  c #A97B47",
"Y  c #A27648",
"T  c #A5794A",
"R  c #A97D4B",
"E  c #A67F50",
"W  c #816F62",
"Q  c #877362",
"!  c #8B7663",
"~  c #8F7A64",
"^  c #837468",
"/  c #907764",
"(  c #947D66",
")  c #867E7A",
"_  c #AD804C",
"`  c #AE8354",
"'  c #A68059",
"]  c #AD855B",
"[  c #B28655",
"{  c #B38857",
"}  c #B78D5D",
"|  c #B88D5D",
" . c #9C816B",
".. c #A18872",
"X. c #918680",
"o. c #AAAAAA",
"O. c None",
/* pixels */
"O.O.O.O.O.O.O.O.O.O.O.O.O.O.O.O.O.O.O.O.O.O.O.O.O.O.O.O.O.O.O.O.O.O.O.O.O.O.O.O.O.O.O.O.O.O.O.O.",
"O.O.O.O.O.O.O.O.O.O.O.O.O.O.O.O.O.O.O.O.O.O.O.O.O.O.O.O.O.O.O.O.O.O.O.O.O.O.O.O.O.O.O.O.O.O.O.O.",
"O.O.O.O.O.O.O.O.O.O.O.O.O.O.O.O.O.O.O.O.O.O.O.O.O.O.O.O.O.O.O.O.O.O.O.O.O.O.O.O.O.O.O.O.O.O.O.O.",
"O.O.O.O.O.O.O.O.O.O.O.O.O.O.O.O.O.O.O.O.O.O.O.O.O.O.O.O.O.O.O.O.O.O.O.O.O.O.O.O.O.O.O.O.O.O.O.O.",
"O.O.O.O.O.O.O.O.O.O.O.O.O.O.O.O.O.O.O.O.O.O.O.O.O.O.O.O.3 ; 3 6 O 2 O.O.O.O.O.O.O.O.O.O.O.O.O.O.",
"O.O.O.O.O.O.O.O.O.O.O.O.O.O.O.O.O.O.O.O.O.O.O.O.O.O.O.Q - ; . 4 T l A O.O.O.O.O.O.O.O.O.O.O.O.O.",
"O.O.O.O.O.O.O.O.O.O.O.O.O.O.O.O.O.O.O.O.O.O.O.O.O.O.! R 5 , 4 Y I g R N J O.O.O.O.O.O.O.O.O.O.O.",
"O.O.O.O.O.O.O.O.O.O.O.O.O.O.O.O.O.O.O.O.O.O.O.O.O.Q R I P j m P I k  .n I R N J O.O.O.O.O.O.O.O.",
"O.O.O.O.O.O.O.O.O.O.O.O.O.O.O.O.O.O.O.O.O.O.O.O.O.M I I I I I I T ..o.  U I I U N / O.O.O.O.O.O.",
"O.O.O.O.O.O.O.O.O.O.O.O.O.O.O.O.O.O.O.O.O.O.O.O.N R I I I I I I Y E o.. I I I I T T N Q O.O.O.O.",
"O.O.O.O.O.O.O.O.O.O.O.O.O.O.O.O.O.O.O.O.O.O.Z R T I I I I I I I I I P P I I I I I I Y G d O.O.O.",
"O.O.O.O.O.O.O.O.O.O.O.O.O.O.O.O.O.O.O.O.O.F T I T I I I I I I I I I P I I I I I I [ ' o 4 O.O.O.",
"O.O.O.O.O.O.O.O.O.O.O.O.O.O.O.O.O.O.O.O.( R I I I I I I I I I I I I I I I I I I _ | | H 0 O.O.O.",
"O.O.O.O.O.O.O.O.O.O.O.O.O.O.O.O.O.O.O.J R I I I I I I I I I I I I I I I I I I I { | } } i O.O.O.",
"O.O.O.O.O.O.O.O.O.O.O.O.O.O.O.O.O.O.V R I I I I I I P T I I I I I I I I I I I R } } } } O.O.O.O.",
"O.O.O.O.O.O.O.O.O.O.O.O.O.O.O.O.O.Q R T I I I I U m g I I I I I I I I I I I N M ] } } K O.O.O.O.",
"O.O.O.O.O.O.O.O.O.O.O.O.O.O.O.O.O.H T T I I I I m * P I I I I I I I I P I I P ` ' G A O.O.O.O.O.",
"O.O.O.O.O.O.O.O.O.O.O.O.O.O.O.O.D R I I I I I I f I I I I I I I I I I P V z k n ] L O.O.O.O.O.O.",
"O.O.O.O.O.O.O.O.O.O.O.O.O.O.O.c R I I I I I I I T I I I I I I I I I I i O.O.O.O.O.O.O.O.O.O.O.O.",
"O.O.O.O.O.O.O.O.O.O.O.O.O.O.Z R T I I I I I I I I I I I I I I I P T m O.O.O.O.O.O.O.O.O.O.O.O.O.",
"O.O.O.O.O.O.O.O.O.O.O.O.O.J R I I I I I I I I I I I I I I I I I I I C O.O.O.O.O.O.O.O.O.O.O.O.O.",
"O.O.O.O.O.O.O.O.O.O.O.O.M R T I I I I I I I I I I I P I I I I I I I j O.O.O.O.O.O.O.O.O.O.O.O.O.",
"O.O.O.O.O.O.O.O.O.O.O.H R I I I I I I I I I I I I I I I I I I I T I ! O.O.O.O.O.O.O.O.O.O.O.O.O.",
"O.O.O.O.O.O.O.O.O.O.H R I I I I I I I I I I I I I I I I I I I I P T x O.O.O.O.O.O.O.O.O.O.O.O.O.",
"O.O.O.O.O.O.O.O.^ T R T I I I I I I I I I I I I I I I I I P P P I I c O.O.O.O.O.O.O.O.O.O.O.O.O.",
"O.O.O.O.O.O.O.y R I P T I I I I I I I P I I I I I I I T m k I I I I c O.O.O.O.O.O.O.O.O.O.O.O.O.",
"O.O.O.O.O.O.O.G R I I I I I I I I I I Y I I I I I I I I j b I I I I c O.O.O.O.O.O.O.O.O.O.O.O.O.",
"O.O.O.O.O.O.S R I I I I I I I I I P b n I I I I I I I I P I I I I m s O.O.O.O.O.O.O.O.O.O.O.O.O.",
"O.O.O.O.O.O.H I I I I I I I I I I T k T I I I I I I I I P I I I T h O.O.O.O.O.O.O.O.O.O.O.O.O.O.",
"O.O.O.O.O.r _ I I I I I I I I I I T 9 m I I I I I I I I I I I I T u O.O.O.O.O.O.O.O.O.O.O.O.O.O.",
"O.O.O.O.O.7 R T I I I I I I I I I I g T I I I I I I I I I I I I T p O.O.O.O.O.O.O.O.O.O.O.O.O.O.",
"O.O.O.O.O.V I I I I I I I I I I I I b P I I I I I I I I I I I I P i O.O.O.O.O.O.O.O.O.O.O.O.O.O.",
"O.O.O.O.O.J I h T I I I I I I I I I I I I I I I I I I I I I I I I = O.O.O.O.O.O.O.O.O.O.O.O.O.O.",
"O.O.O.O.O.D I l h I I I I I I I I I I I I I I I I I I I I I I I I / O.O.O.O.O.O.O.O.O.O.O.O.O.O.",
"O.O.O.O.O.K P n b T I I I I I I I I I I I I I I I I I I I I I I T c O.O.O.O.O.O.O.O.O.O.O.O.O.O.",
"O.O.O.O.O.l I P U U I I I I I I I I I I I I I I I I I I I I I I P j O.O.O.O.O.O.O.O.O.O.O.O.O.O.",
"O.O.O.O.O.l I I I I I I I I I I I I I I I I I I I I I I P I T I P S O.O.O.O.O.O.O.O.O.O.O.O.O.O.",
"O.O.O.O.O.K I I I I I I I I I I I I I I I I I I I I I P h I T I v 8 O.O.O.O.O.O.O.O.O.O.O.O.O.O.",
"O.O.O.O.O.Z P T I I I I I I I I I I I I I I I b I I I x ) b M j r 5 O.O.O.O.O.O.O.O.O.O.O.O.O.O.",
"O.O.O.O.O.O.n T I I I I I I I I I I I I I T & k I I n O.O.q j 0 r 5 O.O.O.O.O.O.O.O.O.O.O.O.O.O.",
"O.O.O.O.O.O.V P I I I I I I I I I I I I I k P P T P u O.O.O.5 9 9 4 O.O.O.O.O.O.O.O.O.O.O.O.O.O.",
"O.O.O.O.O.O.O.m I I I I I I I I I I I I T m I U h 0 O.O.O.O.q 0 0 7 O.O.O.O.O.O.O.O.O.O.O.O.O.O.",
"O.O.O.O.O.O.O.X.h T I I I I I I I I I P I I I h O.O.O.O.O.O.O.7 8 7 O.O.O.O.O.O.O.O.O.O.O.O.O.O.",
"O.O.O.O.O.O.O.O.O.v m I P I I I I I I P I g = 1 O.O.O.O.O.O.O.7 7 7 7 O.O.O.O.O.O.O.O.O.O.O.O.O.",
"O.O.O.O.O.O.O.O.O.O.O.u i $ $ = l g = & $ > 4 7 > > ; O.O.O.O.4 # 4 o : O.O.O.O.O.O.O.O.O.O.O.O.",
"O.O.O.O.O.O.O.O.O.O.O.O.O.O.O.O.O.O.O.a @ < w s w O.O.O.O.O.O.1 O.1 w O.O.O.O.O.O.O.O.O.O.O.O.O.",
"O.O.O.O.O.O.O.O.O.O.O.O.O.O.O.O.O.O.O.O.O.O.O.O.O.O.O.O.O.O.O.O.O.O.O.O.O.O.O.O.O.O.O.O.O.O.O.O.",
"O.O.O.O.O.O.O.O.O.O.O.O.O.O.O.O.O.O.O.O.O.O.O.O.O.O.O.O.O.O.O.O.O.O.O.O.O.O.O.O.O.O.O.O.O.O.O.O."
};
