/* XPM */
static char *player_down_png[] = {
/* columns rows colors chars-per-pixel */
"48 48 122 2 ",
"   c #020203",
".  c #2F2E2F",
"X  c #4D3926",
"o  c #413B3B",
"O  c #4D423A",
"+  c #51443B",
"@  c #594A3F",
"#  c #674C37",
"$  c #6B4E31",
"%  c #654D3B",
"&  c #694F3F",
"*  c #65503E",
"=  c #6C543F",
"-  c #755535",
";  c #7C5937",
":  c #74553A",
">  c #7A563B",
",  c #75593E",
"<  c #7C5B3C",
"1  c #4B4541",
"2  c #4D4844",
"3  c #4D4848",
"4  c #504741",
"5  c #544B45",
"6  c #5C4D43",
"7  c #524A4A",
"8  c #584F4A",
"9  c #55504D",
"0  c #5D534B",
"q  c #5B5552",
"w  c #5C5A57",
"e  c #5D5E5D",
"r  c #614F44",
"t  c #635143",
"y  c #6A5645",
"u  c #645549",
"i  c #685648",
"p  c #6E5A4A",
"a  c #765D44",
"s  c #7A5D42",
"d  c #725D4B",
"f  c #795F4A",
"g  c #605651",
"h  c #645C56",
"j  c #6E5F53",
"k  c #635D59",
"l  c #75604C",
"z  c #7A624B",
"x  c #67605B",
"c  c #69625C",
"v  c #766352",
"b  c #7C6653",
"n  c #776759",
"m  c #7C6959",
"M  c #676360",
"N  c #6C6866",
"B  c #726A64",
"V  c #7C6F63",
"C  c #7F7064",
"Z  c #737272",
"A  c #A9181F",
"S  c #AD1A21",
"D  c #913D31",
"F  c #8B4D3C",
"G  c #835E3C",
"H  c #84623D",
"J  c #8C653E",
"K  c #8C683F",
"L  c #91673C",
"P  c #966B3F",
"I  c #986D3F",
"U  c #815F41",
"Y  c #856343",
"T  c #8A6642",
"R  c #8D6944",
"E  c #83654A",
"W  c #886749",
"Q  c #866B4F",
"!  c #8D6B4B",
"~  c #946C43",
"^  c #996E44",
"/  c #966149",
"(  c #916B4A",
")  c #9C7245",
"_  c #95714D",
"`  c #9D7349",
"'  c #806751",
"]  c #836B54",
"[  c #8A6D54",
"{  c #836C59",
"}  c #926F53",
"|  c #8D735A",
" . c #937452",
".. c #917558",
"X. c #96795A",
"o. c #98795E",
"O. c #A27646",
"+. c #A67846",
"@. c #A87B47",
"#. c #A37749",
"$. c #A57949",
"%. c #AA7D4A",
"&. c #A47C54",
"*. c #A87C50",
"=. c #857263",
"-. c #82746A",
";. c #937B62",
":. c #A8804D",
">. c #AF8252",
",. c #A6825C",
"<. c #AB835B",
"1. c #B18454",
"2. c #B48857",
"3. c #B0875B",
"4. c #B68C5C",
"5. c #B98C5D",
"6. c #838383",
"7. c #A79A90",
"8. c #AAA5A1",
"9. c #BFBDBA",
"0. c #CCCCCB",
"q. c None",
/* pixels */
"q.q.q.q.q.q.q.q.q.q.q.q.q.q.q.q.q.q.q.q.q.q.q.q.q.q.q.q.q.q.q.q.q.q.q.q.q.q.q.q.q.q.q.q.q.q.q.q.",
"q.q.q.q.q.q.q.q.q.q.q.q.q.q.q.q.q.q.q.q.q.q.q.q.q.q.q.q.q.q.q.q.q.q.q.q.q.q.q.q.q.q.q.q.q.q.q.q.",
"q.q.q.q.q.q.q.q.q.q.q.q.q.q.q.q.q.q.q.q.q.q.q.q.q.q.q.q.q.q.q.q.q.q.q.q.q.q.q.q.q.q.q.q.q.q.q.q.",
"q.q.q.q.q.q.q.q.q.q.q.q.q.q.q.q.q.q.q.q.q.q.q.q.q.q.q.q.q.q.q.q.q.q.q.q.q.q.q.q.q.q.q.q.q.q.q.q.",
"q.q.q.q.q.q.q.q.q.q.q.q.q.q.q.q.q.7 3 q.q.] X._ v ..;.;.z q.q.q q.q.q.q.q.q.q.q.q.q.q.q.q.q.q.q.",
"q.q.q.q.q.q.q.q.q.q.q.q.q.q.q.q.q.7 5 h _ %.@.:.:.@.@.%. .X.O 7 w q.q.q.q.q.q.q.q.q.q.q.q.q.q.q.",
"q.q.q.q.q.q.q.q.q.q.q.q.q.q.q.q.q.7 4 &.+.+.+.+.+.+.+.+.+.%.:.* 9 q.q.q.q.q.q.q.q.q.q.q.q.q.q.q.",
"q.q.q.q.q.q.q.q.q.q.q.q.q.q.q.q.q.o ` +.+.+.+.+.+.+.+.+.+.+.+.$.5 q.q.q.q.q.q.q.q.q.q.q.q.q.q.q.",
"q.q.q.q.q.q.q.q.q.q.q.q.q.q.q.q.q.l ) H +.+.+.+.+.+.+.+.+.+.O.K | q.q.q.q.q.q.q.q.q.q.q.q.q.q.q.",
"q.q.q.q.q.q.q.q.q.q.q.q.q.q.q.q.q.~ J ^ $.+.+.+.+.+.+.+.+.+.O.$ ` q.q.q.q.q.q.q.q.q.q.q.q.q.q.q.",
"q.q.q.q.q.q.q.q.q.q.q.q.q.q.q.q.q.` $.7.6.H +.+.+.+.+.+.) 5 8.` @.n q.q.q.q.q.q.q.q.q.q.q.q.q.q.",
"q.q.q.q.q.q.q.q.q.q.q.q.q.q.q.q.B ` #.0.  X +.+.+.+.+.+.-   0.K $.l q.q.q.q.q.q.q.q.q.q.q.q.q.q.",
"q.q.q.q.q.q.q.q.q.q.q.q.q.q.q.q.! +.+.9.e $ +.+.+.+.+.+.H . 0.) +.{ q.q.q.q.q.q.q.q.q.q.q.q.q.q.",
"q.q.q.q.q.q.q.q.q.q.q.q.q.q.q.q.+.+.+.)  .O.+.+.+.+.+.+.O.o._ O.+.R q.q.q.q.q.q.q.q.q.q.q.q.q.q.",
"q.q.q.q.q.q.q.q.q.q.q.q.q.q.q.p $.+.+.+.+.+.+._ _ _ _ ` +.+.@.O.+.^ q.q.q.q.q.q.q.q.q.q.q.q.q.q.",
"q.q.q.q.q.q.q.q.q.q.q.q.q.q.q.! Y +.+.+.+.O.[ * b ] l y ` +.+.+.+.R q.q.q.q.q.q.q.q.q.q.q.q.q.q.",
"q.q.q.q.q.q.q.q.q.q.q.q.q.q.! +.H +.+.+.+.%...% b ] z t &.+.+.+.) a ! q.q.q.q.q.q.q.q.q.q.q.q.q.",
"q.q.q.q.q.q.q.q.q.q.q.q.q.m $.+.K +.+.+.+.>.4.4.,.[ ,.4.4.+.+.+.#.K $.C q.q.q.q.q.q.q.q.q.q.q.q.",
"q.q.q.q.q.q.q.q.q.q.q.q.q.^ +.$.J +.+.+.+.>.4.4.5.,.5.5.4.+.+.+.` ~ +.! q.q.q.q.q.q.q.q.q.q.q.q.",
"q.q.q.q.q.q.q.q.q.q.q.q.{ $.+.+.Y +.+.+.+.>.4.5.4.3.4.4.2.+.+.+.R $.+.$.q.q.q.q.q.q.q.q.q.q.q.q.",
"q.q.q.q.q.q.q.q.q.q.q.q.( @.O.+.~ ` +.+.+.1.3.F / ( F &.2.O.@.+.~ $.+.O.d q.q.q.q.q.q.q.q.q.q.q.",
"q.q.q.q.q.q.q.q.q.q.q.q.+.+.@.+.+.) +.+.+.@.4.F S S D 3.%.@.+.+.+.+.+.+.v q.q.q.q.q.q.q.q.q.q.q.",
"q.q.q.q.q.q.q.q.q.q.q.{ +.+.+.+.+.+.+.O.+.+.@.>.*.*.1.%.+.O.O.O.+.+.+.+.[ q.q.q.q.q.q.q.q.q.q.q.",
"q.q.q.q.q.q.q.q.q.q.q.6 ^ +.+.+.+.+.+.R R +.+.+.+.+.+.O.@.~ W O.+.+.+.+.^ Z q.q.q.q.q.q.q.q.q.q.",
"q.q.q.q.q.q.q.q.q.q.q.=.O.@.+.+.+.+.O.O.O.T T T ( ! T T T O.+.+.+.+.+.+.O.& q.q.q.q.q.q.q.q.q.q.",
"q.q.q.q.q.q.q.q.q.q.q.[ +.+.+.+.+.! ^ $.+.+.@.+.+.+.+.+.@.+.+.+.+.+.+.+.O.; m q.q.q.q.q.q.q.q.q.",
"q.q.q.q.q.q.q.q.q.q.q.^ +.+.+.+.+.s U +.+.+.+.+.+.+.+.+.+.T +.+.+.+.+.+.$.; T q.q.q.q.q.q.q.q.q.",
"q.q.q.q.q.q.q.q.q.q.6 +.+.+.+.+.@.R #.+.+.+.+.+.+.+.+.O.O.W +.+.+.+.+.+.+.< ~ u q.q.q.q.q.q.q.q.",
"q.q.q.q.q.q.q.q.q.q., O.+.+.+.+.O.K O.@.+.+.+.+.+.+.+.+.a E +.+.+.+.+.+.O.> ~ q.q.q.q.q.q.q.q.q.",
"q.q.q.q.q.q.q.q.q.j < $.+.+.+.+.+.+.+.+.+.+.+.+.+.+.+.O.U T +.+.+.+.+.+.+.- P q.q.q.q.q.q.q.q.q.",
"q.q.q.q.q.q.q.q.q.m ; +.+.+.+.+.+.+.+.+.+.+.+.+.+.+.+.O.+.+.+.+.+.+.@.O.+.- ^ V q.q.q.q.q.q.q.q.",
"q.q.q.q.q.q.q.q.q.a G +.+.+.+.+.+.+.+.+.+.+.+.+.+.+.+.+.+.+.+.+.+.+.+.@.` - ^ # q.q.q.q.q.q.q.q.",
"q.q.q.q.q.q.q.q.q.< G ) O.+.+.+.+.^ +.+.+.+.+.+.+.+.+.+.+.+.+.+.+.+.+.+.H G I # q.q.q.q.q.q.q.q.",
"q.q.q.q.q.q.q.q.q.s J Y +.+.+.+.O.J +.+.+.+.+.+.+.+.+.+.+.+.#.+.+.+.+.+.H J I * q.q.q.q.q.q.q.q.",
"q.q.q.q.q.q.q.q.q.b P H +.+.+.+.+.G +.+.+.+.+.+.+.+.+.+.@.O.T +.+.+.+.+.Y K ^ n q.q.q.q.q.q.q.q.",
"q.q.q.q.q.q.q.q.q.d ^ < +.+.+.+.+.T #.+.+.+.+.+.+.+.+.+.O.O.J +.+.+.+.+.< P ) q.q.q.q.q.q.q.q.q.",
"q.q.q.q.q.q.q.q.q.q.^ ; ` O.+.+.+.( Y +.O.T +.@.+.+.+.+.+.+.T +.+.+.O.) G ^ f q.q.q.q.q.q.q.q.q.",
"q.q.q.q.q.q.q.q.q.q.] ~ K O.+.+.+.T O.+.+.! +.O.+.+.+.+.+.^ T O.O.+.O.G ~ J q.q.q.q.q.q.q.q.q.q.",
"q.q.q.q.q.q.q.q.q.q.q.R ; O.+.+.O.) J @.+.T < #.+.+.+.+.+.: W ! E E a G ^ -.q.q.q.q.q.q.q.q.q.q.",
"q.q.q.q.q.q.q.q.q.q.q.v K G ` ` ( W s O.O.) s ~ +.+.+.+.+.y f f p % G ^ v q.q.q.q.q.q.q.q.q.q.q.",
"q.q.q.q.q.q.q.q.q.q.q.q.x + f W f f * ) +.+.+.+.+.+.+.+.^ 6 p p 6 + v q.q.q.q.q.q.q.q.q.q.q.q.q.",
"q.q.q.q.q.q.q.q.q.q.q.u t 6 + d y p y : ^ ) ` ` ` ^ T ! # u y i + r t q.q.q.q.q.q.q.q.q.q.q.q.q.",
"q.q.q.q.q.q.q.q.q.q.q.q.k c 4 @ i y i u q.q.q.q.q.q.q.q.u y i y 6 O g 9 q.q.q.q.q.q.q.q.q.q.q.q.",
"q.q.q.q.q.q.q.q.q.q.q.q.q.q.k i i y u u 0 q.q.q.q.q.q.u u i u y @ 0 q.q.q.q.q.q.q.q.q.q.q.q.q.q.",
"q.q.q.q.q.q.q.q.q.q.q.q.q.N 6 6 6 i 6 u 6 q.q.q.q.q.2 6 x u 9 u N h q.q.q.q.q.q.q.q.q.q.q.q.q.q.",
"q.q.q.q.q.q.q.q.q.q.q.q.q.q.q.c 0 6 @ q.2 q.q.q.q.q.q.q.k 6 q.M q.q.q.q.q.q.q.q.q.q.q.q.q.q.q.q.",
"q.q.q.q.q.q.q.q.q.q.q.q.q.q.q.q.q.q.q.q.q.q.q.q.q.q.q.q.q.q.q.q.q.q.q.q.q.q.q.q.q.q.q.q.q.q.q.q.",
"q.q.q.q.q.q.q.q.q.q.q.q.q.q.q.q.q.q.q.q.q.q.q.q.q.q.q.q.q.q.q.q.q.q.q.q.q.q.q.q.q.q.q.q.q.q.q.q."
};
