/* XPM */
static char *player_up_png[] = {
/* columns rows colors chars-per-pixel */
"48 48 236 2 ",
"   c #413B3B",
".  c #4A413B",
"X  c #4E443B",
"o  c #524239",
"O  c #50433A",
"+  c #54473E",
"@  c #5A483C",
"#  c #59493E",
"$  c #584B3F",
"%  c #5A4B3F",
"&  c #674C37",
"*  c #664C39",
"=  c #684E39",
"-  c #65503C",
";  c #65503F",
":  c #7A5B3D",
">  c #7E5D3D",
",  c #7E5F3E",
"<  c #4B4541",
"1  c #4D4844",
"2  c #4D4848",
"3  c #504741",
"4  c #574B41",
"5  c #514947",
"6  c #594B42",
"7  c #5C4C40",
"8  c #5C4D41",
"9  c #5C4E42",
"0  c #5D4E43",
"q  c #5F4F43",
"w  c #5A4C44",
"e  c #5B4E47",
"r  c #5A4F47",
"t  c #5C4F46",
"y  c #524948",
"u  c #504B4A",
"i  c #524A4A",
"p  c #534B4A",
"a  c #584F4A",
"s  c #5E5046",
"d  c #57504B",
"f  c #53504E",
"g  c #5F5249",
"h  c #5D534B",
"j  c #5B534D",
"k  c #585453",
"l  c #5E5650",
"z  c #5C5A57",
"x  c #614F44",
"c  c #635141",
"v  c #605043",
"b  c #615044",
"n  c #615145",
"m  c #635145",
"M  c #685647",
"N  c #6D5846",
"B  c #61534A",
"V  c #635448",
"C  c #62554B",
"Z  c #63554B",
"A  c #645548",
"S  c #675548",
"D  c #675549",
"F  c #655648",
"G  c #675648",
"H  c #62564E",
"J  c #685648",
"K  c #685649",
"L  c #68564A",
"P  c #68574A",
"I  c #6D5C4F",
"U  c #785D41",
"Y  c #795C42",
"T  c #705B4B",
"R  c #715D4A",
"E  c #735E4B",
"W  c #705E4C",
"Q  c #795F48",
"!  c #605651",
"~  c #625C56",
"^  c #655C56",
"/  c #625C58",
"(  c #635D59",
")  c #7F6147",
"_  c #75604C",
"`  c #796048",
"'  c #7B6048",
"]  c #7E6248",
"[  c #7B664D",
"{  c #6F6053",
"}  c #67605A",
"|  c #66605B",
" . c #696059",
".. c #6A625D",
"X. c #69635F",
"o. c #776552",
"O. c #756354",
"+. c #7A6450",
"@. c #7F6750",
"#. c #796755",
"$. c #7F6755",
"%. c #796859",
"&. c #7E6958",
"*. c #7E6A58",
"=. c #79695C",
"-. c #676360",
";. c #6A6865",
":. c #6E6866",
">. c #726A64",
",. c #7C6F63",
"<. c #7F7064",
"1. c #767373",
"2. c #8F653F",
"3. c #8B6745",
"4. c #886547",
"5. c #886647",
"6. c #8F6841",
"7. c #8E6A44",
"8. c #8D6B48",
"9. c #8F6E49",
"0. c #8B6A4E",
"q. c #8C6B4D",
"w. c #8B6C4E",
"e. c #8E6C4C",
"r. c #926B43",
"t. c #956E41",
"y. c #976C42",
"u. c #906B47",
"i. c #936C45",
"p. c #946D44",
"a. c #946D45",
"s. c #976F47",
"d. c #986E41",
"f. c #9B6F41",
"g. c #996D42",
"h. c #996F42",
"j. c #986F43",
"k. c #9A6E42",
"l. c #9B6E42",
"z. c #996D44",
"x. c #9A6E45",
"c. c #996F46",
"v. c #986F47",
"b. c #936D49",
"n. c #916E49",
"m. c #906C4C",
"M. c #967043",
"N. c #9A7041",
"B. c #9A7042",
"V. c #9B7042",
"C. c #9A7043",
"Z. c #9B7043",
"A. c #9D7042",
"S. c #9E7142",
"D. c #9E7143",
"F. c #9E7243",
"G. c #9F7243",
"H. c #997045",
"J. c #9E7244",
"K. c #9D7046",
"L. c #9C7146",
"P. c #9D7147",
"I. c #9E7147",
"U. c #9C7246",
"Y. c #9D7346",
"T. c #93724B",
"R. c #97724B",
"E. c #9D7148",
"W. c #9F754A",
"Q. c #98744C",
"!. c #806A54",
"~. c #816A55",
"^. c #866B56",
"/. c #856D56",
"(. c #836C59",
"). c #88705B",
"_. c #8F775C",
"`. c #977650",
"'. c #917558",
"]. c #96795A",
"[. c #A07344",
"{. c #A17445",
"}. c #A17545",
"|. c #A27545",
" X c #A37645",
".X c #A07546",
"XX c #A27646",
"oX c #A37746",
"OX c #A47645",
"+X c #A47745",
"@X c #A57745",
"#X c #A47646",
"$X c #A47746",
"%X c #A57746",
"&X c #A47747",
"*X c #A57747",
"=X c #A67746",
"-X c #A67844",
";X c #A77944",
":X c #A67845",
">X c #A57846",
",X c #A47946",
"<X c #A47847",
"1X c #A57847",
"2X c #A67846",
"3X c #A77846",
"4X c #A67946",
"5X c #A67847",
"6X c #A77947",
"7X c #A87B46",
"8X c #A87B47",
"9X c #A97B47",
"0X c #A37748",
"qX c #A67748",
"wX c #A4774B",
"eX c #A0774D",
"rX c #A47848",
"tX c #A57849",
"yX c #A77848",
"uX c #A77948",
"iX c #A67949",
"pX c #A77A48",
"aX c #A37C4B",
"sX c #A37A4F",
"dX c #A87A49",
"fX c #A97B4B",
"gX c #AA7D48",
"hX c #AB7D48",
"jX c #AB7E49",
"kX c #AB7E4B",
"lX c #857263",
"zX c #937B61",
"xX c #947B63",
"cX c #967B65",
"vX c #A8804D",
"bX c None",
/* pixels */
"bXbXbXbXbXbXbXbXbXbXbXbXbXbXbXbXbXbXbXbXbXbXbXbXbXbXbXbXbXbXbXbXbXbXbXbXbXbXbXbXbXbXbXbXbXbXbXbX",
"bXbXbXbXbXbXbXbXbXbXbXbXbXbXbXbXbXbXbXbXbXbXbXbXbXbXbXbXbXbXbXbXbXbXbXbXbXbXbXbXbXbXbXbXbXbXbXbX",
"bXbXbXbXbXbXbXbXbXbXbXbXbXbXbXbXbXbXbXbXbXbXbXbXbXbXbXbXbXbXbXbXbXbXbXbXbXbXbXbXbXbXbXbXbXbXbXbX",
"bXbXbXbXbXbXbXbXbXbXbXbXbXbXbXbXbXbXbXbXbXbXbXbXbXbXbXbXbXbXbXbXbXbXbXbXbXbXbXbXbXbXbXbXbXbXbXbX",
"bXbXbXbXbXbXbXbXbXbXbXbXbXbXbXbXbXu 2 bXbX~.].T.o._.zXzX[ bXbXk bXbXbXbXbXbXbXbXbXbXbXbXbXbXbXbX",
"bXbXbXbXbXbXbXbXbXbXbXbXbXbXbXbXbXu 5 ^ Q.kX3XgXgXgX3XgX`.'.o u z bXbXbXbXbXbXbXbXbXbXbXbXbXbXbX",
"bXbXbXbXbXbXbXbXbXbXbXbXbXbXbXbXbXp + sX3X3X3X3X3X3X3X3X3X7XvX; f bXbXbXbXbXbXbXbXbXbXbXbXbXbXbX",
"bXbXbXbXbXbXbXbXbXbXbXbXbXbXbXbXbX  R.3X3X3X3X,X3X,X,X3X3X3X3XaXs bXbXbXbXbXbXbXbXbXbXbXbXbXbXbX",
"bXbXbXbXbXbXbXbXbXbXbXbXbXbXbXbXbX_ rX3X$X,X3X3X3X,X$X3X3X,X$X3XsXbXbXbXbXbXbXbXbXbXbXbXbXbXbXbX",
"bXbXbXbXbXbXbXbXbXbXbXbXbXbXbXbXbXi.3X$X3X3X3X$X3X$X,X3X3X3X3X3X|.bXbXbXbXbXbXbXbXbXbXbXbXbXbXbX",
"bXbXbXbXbXbXbXbXbXbXbXbXbXbXbXbXbXW.3X,X3X,X3X,X3X,X$X3X$X,X,X$XdX%.bXbXbXbXbXbXbXbXbXbXbXbXbXbX",
"bXbXbXbXbXbXbXbXbXbXbXbXbXbXbXbX>.Y.3X3X3X|.3X3X3X3X3X3X3X3X3X3XdXR bXbXbXbXbXbXbXbXbXbXbXbXbXbX",
"bXbXbXbXbXbXbXbXbXbXbXbXbXbXbXbX8.3X3X3X3X3X3X3X3X3X$X,X3X,X$X3X7X).bXbXbXbXbXbXbXbXbXbXbXbXbXbX",
"bXbXbXbXbXbXbXbXbXbXbXbXbXbXbXbXrX3X,X3X3X$X,X$X,X3X3X3X3X3X3X3X$X6.bXbXbXbXbXbXbXbXbXbXbXbXbXbX",
"bXbXbXbXbXbXbXbXbXbXbXbXbXbXbXI rX3X3X3X3X,X$X,X$X3X3X3X3X3X3X,X3Xs.bXbXbXbXbXbXbXbXbXbXbXbXbXbX",
"bXbXbXbXbXbXbXbXbXbXbXbXbXbXbXu.B.3X$X,X3X3X3X3X3X3X3X$X,X3X3X$X$Xp.bXbXbXbXbXbXbXbXbXbXbXbXbXbX",
"bXbXbXbXbXbXbXbXbXbXbXbXbXbX8.rX|.3X3X3X3X3X3X3X3X3X3X,X$X3X3X,X3X$Xm.bXbXbXbXbXbXbXbXbXbXbXbXbX",
"bXbXbXbXbXbXbXbXbXbXbXbXbX(.rX,X|.3X3X3X3XsX3X3X,X3X3X3X3X3X3X$X3X$XrX,.bXbXbXbXbXbXbXbXbXbXbXbX",
"bXbXbXbXbXbXbXbXbXbXbXbXbXL.3XrX|.3X,X3X3X,X$X,X3X3X3X3X3X3X3X3X$X3XrXq.bXbXbXbXbXbXbXbXbXbXbXbX",
"bXbXbXbXbXbXbXbXbXbXbXbX(.,X,X3XY.3X,X3X3X3X3X3X3X,X,X$X3X$X,X3X7X$X7XrXbXbXbXbXbXbXbXbXbXbXbXbX",
"bXbXbXbXbXbXbXbXbXbXbXbX8.3X3X3X3X3X3X,X$X3X3X3X3X3X,X3X3X3X3X3X3X,X$X|.W bXbXbXbXbXbXbXbXbXbXbX",
"bXbXbXbXbXbXbXbXbXbXbXbX,X3X3X3X,X3X3X3X3X3X3X$X3X3X$X3X,X$X,X3X3X3X3X3X#.bXbXbXbXbXbXbXbXbXbXbX",
"bXbXbXbXbXbXbXbXbXbXbX/.0X3X$X,X3X3X3X3X3X3X3X,X,X$X3X,X$X,X$X3X$X3X3X3Xw.bXbXbXbXbXbXbXbXbXbXbX",
"bXbXbXbXbXbXbXbXbXbXbXt L.3X3X3X3X,X,X$X,X$X3X3X3X3X3X3X3X3X3X3X,X3X3X3XM.1.bXbXbXbXbXbXbXbXbXbX",
"bXbXbXbXbXbXbXbXbXbXbXlX3X3X3X3X3X3X$X,X$X,X3X3X3X3X,X$X3X3X,X$X3X3X3X$XrX3.bXbXbXbXbXbXbXbXbXbX",
"bXbXbXbXbXbXbXbXbXbXbXq.3X3X3X$XrX|.3X3X3X3X3X$X$X,X3X3X3X3X3X3X$X,X3X,X$X|.$.bXbXbXbXbXbXbXbXbX",
"bXbXbXbXbXbXbXbXbXbXbXs.3X3X3X,X3X,X3X3X3X3X3X,X3X3X,X3X3X$X3X3X3X3X,X3X$X$Xr.bXbXbXbXbXbXbXbXbX",
"bXbXbXbXbXbXbXbXbXbX6 wX,X$X3X3X3X3X3X$X,X3X3X3X3X3X$X3X3X3X$X,X3X3X$X3X3X$Xt.Z bXbXbXbXbXbXbXbX",
"bXbXbXbXbXbXbXbXbXbX, rX$X,X3X3X3X3X3X3X3X3X3X3X3X3X3X$X3X$X3X3X3X3X,X3X3X$XB.bXbXbXbXbXbXbXbXbX",
"bXbXbXbXbXbXbXbXbX{ B.3X3X3X3X$X,X$X,X3X3X$X,X$X,X3X3X,X3X,X3X3X3X3X$X3X3X$XB.bXbXbXbXbXbXbXbXbX",
"bXbXbXbXbXbXbXbXbX*.A.3X3X3X3X,X$X,X$X3X3X,X$X,X$X3X3XrX,X3X,X$X,X$X3X3X3X|.B.<.bXbXbXbXbXbXbXbX",
"bXbXbXbXbXbXbXbXbXU A.$X,X3X3X3X3X3X3X3X3X3X3X3X3X3X3X3X$X3X3X3X3X3X,X3X3X3Xl.* bXbXbXbXbXbXbXbX",
"bXbXbXbXbXbXbXbXbX: [.$X7X3X$X3X,X$X3X3X,X$X3X3X,X3X3X3X3X,X$X3X3X3X3X3X3X,Xl.& bXbXbXbXbXbXbXbX",
"bXbXbXbXbXbXbXbXbXU f.$X$X3X$X3X3X3X3X3X3X3X,X3X$X3X$X,X3X3X3X3X,X$X,X3X3X3XB.- bXbXbXbXbXbXbXbX",
"bXbXbXbXbXbXbXbXbX!.l.$X3X3X7X$X3X3X3X3X3X3X3X3X3X$X3X3X$X3X3X3X$X,X$X3X3X|.B.=.bXbXbXbXbXbXbXbX",
"bXbXbXbXbXbXbXbXbXT g.A.$X$X3X3X$X,X3X3X3X|.3X,X3X,X3X3X,X3X3X$X3X3X3X3X3X$Xx.bXbXbXbXbXbXbXbXbX",
"bXbXbXbXbXbXbXbXbXbXx.A.7X3X$X3X3X,X3X$X$X,X$X,X3X3X,X$X3X3X3X,X3X3X,X3X3X,X) bXbXbXbXbXbXbXbXbX",
"bXbXbXbXbXbXbXbXbXbX$.A.$X3X$X3X3X,X3X,X3X3X3X3X$X,X3X3X3X3X3X3X,X3X3X3X3XY.bXbXbXbXbXbXbXbXbXbX",
"bXbXbXbXbXbXbXbXbXbXbXi.$X$X7X$X3X3XY.3X3X$X3X3X3X3X,X3X,X3X3X$X$X3X3X3XrXcXbXbXbXbXbXbXbXbXbXbX",
"bXbXbXbXbXbXbXbXbXbXbXO.l.x.$X3X3X3X3X3X3X3X3X3X3X3X$X3X$X3X3X,X|.|.|.|.^.bXbXbXbXbXbXbXbXbXbXbX",
"bXbXbXbXbXbXbXbXbXbXbXbX .o ) b.L.$X$X3X3X3X3X3X$X$X3XrX[.3.5.' c # +.bXbXbXbXbXbXbXbXbXbXbXbXbX",
"bXbXbXbXbXbXbXbXbXbXbXC b s O R N Q Q > y.L.E.L.E.l.6.0.= J J J o b b bXbXbXbXbXbXbXbXbXbXbXbXbX",
"bXbXbXbXbXbXbXbXbXbXbXbX( X.3 % J M J C bXbXbXbXbXbXbXbXC J M J t . ! d bXbXbXbXbXbXbXbXbXbXbXbX",
"bXbXbXbXbXbXbXbXbXbXbXbXbXbX} G J J G J l bXbXbXbXbXbXZ b J M M # h bXbXbXbXbXbXbXbXbXbXbXbXbXbX",
"bXbXbXbXbXbXbXbXbXbXbXbXbX;.8 e v M 8 B 8 bXbXbXbXbX1 e } G a C :.~ bXbXbXbXbXbXbXbXbXbXbXbXbXbX",
"bXbXbXbXbXbXbXbXbXbXbXbXbXbXbX..j e # bX< bXbXbXbXbXbXbX( 4 bX-.bXbXbXbXbXbXbXbXbXbXbXbXbXbXbXbX",
"bXbXbXbXbXbXbXbXbXbXbXbXbXbXbXbXbXbXbXbXbXbXbXbXbXbXbXbXbXbXbXbXbXbXbXbXbXbXbXbXbXbXbXbXbXbXbXbX",
"bXbXbXbXbXbXbXbXbXbXbXbXbXbXbXbXbXbXbXbXbXbXbXbXbXbXbXbXbXbXbXbXbXbXbXbXbXbXbXbXbXbXbXbXbXbXbXbX"
};
