/* XPM */
static char *player_left_png[] = {
/* columns rows colors chars-per-pixel */
"48 48 97 2 ",
"   c #37291B",
".  c #443D3C",
"X  c #564028",
"o  c #4D4136",
"O  c #46403D",
"+  c #4F473F",
"@  c #52433A",
"#  c #5F4A3C",
"$  c #634A39",
"%  c #6F533B",
"&  c #73553E",
"*  c #74583D",
"=  c #7D5B3D",
"-  c #4D4645",
";  c #4C4846",
":  c #554840",
">  c #5D4D43",
",  c #564C4B",
"<  c #5A4F49",
"1  c #5B544E",
"2  c #535151",
"3  c #5B5553",
"4  c #655345",
"5  c #6B5543",
"6  c #64564A",
"7  c #685749",
"8  c #6C5949",
"9  c #765A42",
"0  c #745D4A",
"q  c #645B56",
"w  c #645D59",
"e  c #7D6047",
"r  c #7C6149",
"t  c #6D6057",
"y  c #6A625D",
"u  c #746355",
"i  c #7A6553",
"p  c #7B6959",
"a  c #6F6B68",
"s  c #726B67",
"d  c #7D6E61",
"f  c #84633F",
"g  c #8B633D",
"h  c #90673F",
"j  c #836343",
"k  c #8A6643",
"l  c #8C6945",
"z  c #84674B",
"x  c #896649",
"c  c #86694C",
"v  c #8E6A48",
"b  c #946D43",
"n  c #996E42",
"m  c #9C7245",
"M  c #96724C",
"N  c #9C764B",
"B  c #9E794E",
"V  c #876C53",
"C  c #906F53",
"Z  c #8D7355",
"A  c #84715D",
"S  c #8B735A",
"D  c #937454",
"F  c #987752",
"G  c #977854",
"H  c #9B7954",
"J  c #91755B",
"K  c #96795E",
"L  c #9C7A5C",
"P  c #A37646",
"I  c #A67846",
"U  c #A97B47",
"Y  c #A27648",
"T  c #A5794A",
"R  c #A97D4B",
"E  c #A67F50",
"W  c #816F62",
"Q  c #877362",
"!  c #8B7663",
"~  c #8F7A64",
"^  c #837468",
"/  c #907764",
"(  c #947D66",
")  c #867E7A",
"_  c #AD804C",
"`  c #AE8354",
"'  c #A68059",
"]  c #AD855B",
"[  c #B28655",
"{  c #B38857",
"}  c #B78D5D",
"|  c #B88D5D",
" . c #9C816B",
".. c #A18872",
"X. c #918680",
"o. c #AAAAAA",
"O. c None",
/* pixels */
"O.O.O.O.O.O.O.O.O.O.O.O.O.O.O.O.O.O.O.O.O.O.O.O.O.O.O.O.O.O.O.O.O.O.O.O.O.O.O.O.O.O.O.O.O.O.O.O.",
"O.O.O.O.O.O.O.O.O.O.O.O.O.O.O.O.O.O.O.O.O.O.O.O.O.O.O.O.O.O.O.O.O.O.O.O.O.O.O.O.O.O.O.O.O.O.O.O.",
"O.O.O.O.O.O.O.O.O.O.O.O.O.O.O.O.O.O.O.O.O.O.O.O.O.O.O.O.O.O.O.O.O.O.O.O.O.O.O.O.O.O.O.O.O.O.O.O.",
"O.O.O.O.O.O.O.O.O.O.O.O.O.O.O.O.O.O.O.O.O.O.O.O.O.O.O.O.O.O.O.O.O.O.O.O.O.O.O.O.O.O.O.O.O.O.O.O.",
"O.O.O.O.O.O.O.O.O.O.O.O.O.O.2 O 6 3 - 3 O.O.O.O.O.O.O.O.O.O.O.O.O.O.O.O.O.O.O.O.O.O.O.O.O.O.O.O.",
"O.O.O.O.O.O.O.O.O.O.O.O.O.A v Y 5 . - - Q O.O.O.O.O.O.O.O.O.O.O.O.O.O.O.O.O.O.O.O.O.O.O.O.O.O.O.",
"O.O.O.O.O.O.O.O.O.O.O.J N U g I N 4 , 5 R ! O.O.O.O.O.O.O.O.O.O.O.O.O.O.O.O.O.O.O.O.O.O.O.O.O.O.",
"O.O.O.O.O.O.O.O.! F R U b  .l T I N f P I U Q O.O.O.O.O.O.O.O.O.O.O.O.O.O.O.O.O.O.O.O.O.O.O.O.O.",
"O.O.O.O.O.O.~ N U I I I   o.] Y I I I I I I M O.O.O.O.O.O.O.O.O.O.O.O.O.O.O.O.O.O.O.O.O.O.O.O.O.",
"O.O.O.O.Q N R T I I I I . o.E Y I I I I I I R M O.O.O.O.O.O.O.O.O.O.O.O.O.O.O.O.O.O.O.O.O.O.O.O.",
"O.O.O.d F Y U I I I I I T P I I I I I I I I I U R S O.O.O.O.O.O.O.O.O.O.O.O.O.O.O.O.O.O.O.O.O.O.",
"O.O.O.4 O E [ U I I I I I I I I I I I I I I I I U U F O.O.O.O.O.O.O.O.O.O.O.O.O.O.O.O.O.O.O.O.O.",
"O.O.O.0 H } } R I I I I I I I I I I I I I I I I I I R ( O.O.O.O.O.O.O.O.O.O.O.O.O.O.O.O.O.O.O.O.",
"O.O.O.i } } | { I I I I I I I I I I I I I I I I I I Y U J O.O.O.O.O.O.O.O.O.O.O.O.O.O.O.O.O.O.O.",
"O.O.O.O.} | | | U I I I I I I I I I I I I I I I I I I I R V O.O.O.O.O.O.O.O.O.O.O.O.O.O.O.O.O.O.",
"O.O.O.O./ | | ] M N I I I I I I I I I I I k m I I I I T U R W O.O.O.O.O.O.O.O.O.O.O.O.O.O.O.O.O.",
"O.O.O.O.O.Q G E ` T I I I I I I I I I I I Y * m I I I I I I H O.O.O.O.O.O.O.O.O.O.O.O.O.O.O.O.O.",
"O.O.O.O.O.O.K ] b k z V m I I I I I I I I I I j I I I I I I _ D O.O.O.O.O.O.O.O.O.O.O.O.O.O.O.O.",
"O.O.O.O.O.O.O.O.O.O.O.O.i U I I I I I I I I I I I I I I I I I _ c O.O.O.O.O.O.O.O.O.O.O.O.O.O.O.",
"O.O.O.O.O.O.O.O.O.O.O.O.O.n I I I I I I I I I I I I I I I I I I _ S O.O.O.O.O.O.O.O.O.O.O.O.O.O.",
"O.O.O.O.O.O.O.O.O.O.O.O.O.D I I I I I I I I I I I I I I I I I I I R J O.O.O.O.O.O.O.O.O.O.O.O.O.",
"O.O.O.O.O.O.O.O.O.O.O.O.O.j I I I I I I I I I I I I I I I I I I I I _ M O.O.O.O.O.O.O.O.O.O.O.O.",
"O.O.O.O.O.O.O.O.O.O.O.O.O.! I I I I I I I I I I I I I I I I I I I I I R L O.O.O.O.O.O.O.O.O.O.O.",
"O.O.O.O.O.O.O.O.O.O.O.O.O.z I I I I I I I I I I I I I I I I I I I I I I U H O.O.O.O.O.O.O.O.O.O.",
"O.O.O.O.O.O.O.O.O.O.O.O.O.c I I I I m I I I I I I I I I I I I I I I I I I U T ^ O.O.O.O.O.O.O.O.",
"O.O.O.O.O.O.O.O.O.O.O.O.O.z I I I I x m I I I I I I I I I I I I I I I I I T I E y O.O.O.O.O.O.O.",
"O.O.O.O.O.O.O.O.O.O.O.O.O.c I I I I l j I I I I I I I I m I I I I I I I I I I U G O.O.O.O.O.O.O.",
"O.O.O.O.O.O.O.O.O.O.O.O.O.s m I I I I I I I I I I I I I n v I I I I I I I I I I R S O.O.O.O.O.O.",
"O.O.O.O.O.O.O.O.O.O.O.O.O.O.b I I I I I I I I I I I I I I k T I I I I I I I I I I B O.O.O.O.O.O.",
"O.O.O.O.O.O.O.O.O.O.O.O.O.O.u T I I I I I I I I I I I I m 9 I I I I I I I I I I I _ r O.O.O.O.O.",
"O.O.O.O.O.O.O.O.O.O.O.O.O.O.p T I I I I I I I I I I I I I h I I I I I I I I I I I R 6 O.O.O.O.O.",
"O.O.O.O.O.O.O.O.O.O.O.O.O.O.r I I I I I I I I I I I I I I l I I I I I I I I I I I R V O.O.O.O.O.",
"O.O.O.O.O.O.O.O.O.O.O.O.O.O.9 U I I I I I I I I I I I I I I I I I I I I I I I P b I Z O.O.O.O.O.",
"O.O.O.O.O.O.O.O.O.O.O.O.O.O./ U I I I I I I I I I I I I I I I I I I I I I I I n l I F O.O.O.O.O.",
"O.O.O.O.O.O.O.O.O.O.O.O.O.O.c I I I I I I I I I I I I I I I I I I I I I I I I l n I K O.O.O.O.O.",
"O.O.O.O.O.O.O.O.O.O.O.O.O.O.f I I I I I I I I I I I I I I I I I I I I I I I I T P I x O.O.O.O.O.",
"O.O.O.O.O.O.O.O.O.O.O.O.O.O.S Y I I I I I I I I I I I I I I I I I I I I I I I I I I x O.O.O.O.O.",
"O.O.O.O.O.O.O.O.O.O.O.O.O.O.8 v P I I g P I I I I I I I I I I I I I I I I I I I I U J O.O.O.O.O.",
"O.O.O.O.O.O.O.O.O.O.O.O.O.O.5 r j M x ) x I I I b I I I I I I I I I I I I I I I I I Z O.O.O.O.O.",
"O.O.O.O.O.O.O.O.O.O.O.O.O.O.5 r e e t O.O.n I I x & T I I I I I I I I I I I I I I n O.O.O.O.O.O.",
"O.O.O.O.O.O.O.O.O.O.O.O.O.O.4 e 9 5 O.O.O.i m I I P k I I I I I I I I I I I I I I c O.O.O.O.O.O.",
"O.O.O.O.O.O.O.O.O.O.O.O.O.O.4 0 0 q O.O.O.O.0 b I I n P I I I I I I I I I I I I m O.O.O.O.O.O.O.",
"O.O.O.O.O.O.O.O.O.O.O.O.O.O.4 7 7 O.O.O.O.O.O.O.b I I I I I I I I I I I I I I n X.O.O.O.O.O.O.O.",
"O.O.O.O.O.O.O.O.O.O.O.O.O.4 7 7 6 O.O.O.O.O.O.O.6 = g P I I I U I I I P P m x O.O.O.O.O.O.O.O.O.",
"O.O.O.O.O.O.O.O.O.O.O.O.: @ 4 : 4 O.O.O.O.; 4 > 6 4 > $ % = g l = $ $ i u O.O.O.O.O.O.O.O.O.O.O.",
"O.O.O.O.O.O.O.O.O.O.O.O.O.w 1 O.3 O.O.O.O.O.O.w a q < @ a O.O.O.O.O.O.O.O.O.O.O.O.O.O.O.O.O.O.O.",
"O.O.O.O.O.O.O.O.O.O.O.O.O.O.O.O.O.O.O.O.O.O.O.O.O.O.O.O.O.O.O.O.O.O.O.O.O.O.O.O.O.O.O.O.O.O.O.O.",
"O.O.O.O.O.O.O.O.O.O.O.O.O.O.O.O.O.O.O.O.O.O.O.O.O.O.O.O.O.O.O.O.O.O.O.O.O.O.O.O.O.O.O.O.O.O.O.O."
};
