/* XPM */
static char *tile187_png[] = {
/* columns rows colors chars-per-pixel */
"48 48 70 1 ",
"  c #463019",
". c #4E371C",
"X c #50371C",
"o c #52391D",
"O c #5A3F20",
"+ c #5E4121",
"@ c #644624",
"# c #664826",
"$ c #694A26",
"% c #654828",
"& c #6D4E29",
"* c #704F29",
"= c #6F502B",
"- c #72512C",
"; c #6E5130",
": c #765632",
"> c #7B5B35",
", c #7E5E38",
"< c #84633C",
"1 c #89673F",
"2 c #8B683F",
"3 c #876740",
"4 c #8A6A42",
"5 c #916E45",
"6 c #8F7249",
"7 c #967146",
"8 c #967248",
"9 c #9B764B",
"0 c #9E784D",
"q c #A17A4E",
"w c #A37E51",
"e c #A87F51",
"r c #A38053",
"t c #AD8254",
"y c #AF8B5B",
"u c #B18556",
"i c #B58C5C",
"p c #A18D60",
"a c #AA9566",
"s c #AE9A68",
"d c #BD9361",
"f c #B39B6A",
"g c #BBA166",
"h c #B4A16F",
"j c #BCA26B",
"k c #BFA270",
"l c #BFA975",
"z c #C7A764",
"x c #CFAC66",
"c c #C2A86E",
"v c #CDAE6F",
"b c #D2B06C",
"n c #C2A370",
"m c #C4AB74",
"M c #CBAB72",
"N c #C7AF79",
"B c #C9AE79",
"V c #CDB37C",
"C c #D2B273",
"Z c #DBBA76",
"A c #D2B57D",
"S c #D4B87F",
"D c #DCBB7B",
"F c #D6BB82",
"G c #DBBD83",
"H c #E3C385",
"J c #E7C689",
"K c #E7C88C",
"L c #EBCB8A",
"P c None",
/* pixels */
"PPPPPPPPPPPPPPPPPPPPP40tq:oPPPPPPPPPPPPPPPPPPPPP",
"PPPPPPPPPPPPPPPPPPPPP40tw:oPPPPPPPPPPPPPPPPPPPPP",
"PPPPPPPPPPPPPPPPPPPPP40t0:OPPPPPPPPPPPPPPPPPPPPP",
"PPPPPPPPPPPPPPPPPPPPP40tq:.PPPPPPPPPPPPPPPPPPPPP",
"PPPPPPPPPPPPPPPPPPPPP39t0:.PPPPPPPPPPPPPPPPPPPPP",
"PPPPPPPPPPPPPPPPPPPPP8rur,%PPPPPPPPPPPPPPPPPPPPP",
"PPPPPPPPPPPPPPPPPPPPPkkkfapPPPPPPPPPPPPPPPPPPPPP",
"PPPPPPPPPPPPPPPPPPPPBFFNNmjsPPPPPPPPPPPPPPPPPPPP",
"PPPPPPPPPPPPPPPPPPPBAFFSVvzhsPPPPPPPPPPPPPPPPPPP",
"PPPPPPPPPPPPPPPPPPmFGGGGlmCzgsPPPPPPPPPPPPPPPPPP",
"PPPPPPPPPPPPPPPPPPNGJCDJGNNvchPPPPPPPPPPPPPPPPPP",
"PPPPPPPPPPPPPPPPPPjFLbZLLAlAmsPPPPPPPPPPPPPPPPPP",
"PPPPPPPPPPPPPPPPPPwMLHCxxvSGf6PPPPPPPPPPPPPPPPPP",
"PPPPPPPPPPPPPPPPPP5yAKJZZHFn9:PPPPPPPPPPPPPPPPPP",
"PPPPPPPPPPPPPPPPPP38iDJJHFMw>$PPPPPPPPPPPPPPPPPP",
"PPPPPPPPPPPPPPPPPP>4qidirrw<$oPPPPPPPPPPPPPPPPPP",
"PPPPPPPPPPPPPPPPPP>19eeq<<4<@oPPPPPPPPPPPPPPPPPP",
"PPPPPPPPPPPPPPPPPP:1que9<<3>@oPPPPPPPPPPPPPPPPPP",
"PPPPPPPPPPPPPPPPPP:4qte7111>%XPPPPPPPPPPPPPPPPPP",
"PPPPPPPPPPPPPPPPPP>2que9<<1>%XPPPPPPPPPPPPPPPPPP",
"PPPPPPPPPPPPPPPPPP-1que7<<3>%XPPPPPPPPPPPPPPPPPP",
"4444444444<,1<::>:*<qte7433,%XPPPPPPPPPPPPPPPPPP",
"909990090977q7532<-<qte9443>%XPPPPPPPPPPPPPPPPPP",
"uuuuuuuuuuuueuuwq7<<9ue7433,%XPPPPPPPPPPPPPPPPPP",
"uuuuuuuuuuutweute5->7tt7<<3>%XPPPPPPPPPPPPPPPPPP",
"000000000q00780081*:4qq7<<1:@XPPPPPPPPPPPPPPPPPP",
"3333333333333333<-$:40q943<=+XPPPPPPPPPPPPPPPPPP",
">,>>>,>>>,>>>,>*&$O:5rr7<<<=+XPPPPPPPPPPPPPPPPPP",
"%%%%%%%%%%%%@%@@o@@-4qq9<3<=+XPPPPPPPPPPPPPPPPPP",
"o.OXXOX.oooooooooo#>49q944<=+XPPPPPPPPPPPPPPPPPP",
"PPPPPPPPPPPPPPPPPP#-<708<<1=+XPPPPPPPPPPPPPPPPPP",
"PPPPPPPPPPPPPPPPPPO&,807,<<=+XPPPPPPPPPPPPPPPPPP",
"PPPPPPPPPPPPPPPPPPO%,708,,1=+XPPPPPPPPPPPPPPPPPP",
"PPPPPPPPPPPPPPPPPP@=>488,<<=+XPPPPPPPPPPPPPPPPPP",
"PPPPPPPPPPPPPPPPPP+=>388:,1=+XPPPPPPPPPPPPPPPPPP",
"PPPPPPPPPPPPPPPPPPX%>184-:<=+XPPPPPPPPPPPPPPPPPP",
"PPPPPPPPPPPPPPPPPPX+-<4<-->&+XPPPPPPPPPPPPPPPPPP",
"PPPPPPPPPPPPPPPPPPo+=<4<=-:&+X PPPPPPPPPPPPPPPPP",
"PPPPPPPPPPPPPPPPPPX+$-<<*-:$+XPPPPPPPPPPPPPPPPPP",
"PPPPPPPPPPPPPPPPPPPX+$::*$$Oo.PPPPPPPPPPPPPPPPPP",
"PPPPPPPPPPPPPPPPPPPPo+$=@@+o.PPPPPPPPPPPPPPPPPPP",
"PPPPPPPPPPPPPPPPPPPPPX+#ooXXPPPPPPPPPPPPPPPPPPPP",
"PPPPPPPPPPPPPPPPPPPPPPPPPPPPPPPPPPPPPPPPPPPPPPPP",
"PPPPPPPPPPPPPPPPPPPPPPPPPPPPPPPPPPPPPPPPPPPPPPPP",
"PPPPPPPPPPPPPPPPPPPPPPPPPPPPPPPPPPPPPPPPPPPPPPPP",
"PPPPPPPPPPPPPPPPPPPPPPPPPPPPPPPPPPPPPPPPPPPPPPPP",
"PPPPPPPPPPPPPPPPPPPPPPPPPPPPPPPPPPPPPPPPPPPPPPPP",
"PPPPPPPPPPPPPPPPPPPPPPPPPPPPPPPPPPPPPPPPPPPPPPPP"
};
