/* XPM */
static char *tile178_png[] = {
/* columns rows colors chars-per-pixel */
"48 48 71 1 ",
"  c #3C2915",
". c #402C17",
"X c #452F19",
"o c #473219",
"O c #4E361C",
"+ c #533A1E",
"@ c #583E1F",
"# c #593F21",
"$ c #5E4222",
"% c #634523",
"& c #654826",
"* c #6B4B26",
"= c #654828",
"- c #6C4D29",
"; c #6F502B",
": c #72522D",
"> c #765733",
", c #775833",
"< c #7B5B35",
"1 c #7F5F38",
"2 c #83633C",
"3 c #89663E",
"4 c #876740",
"5 c #876841",
"6 c #8A6942",
"7 c #936E44",
"8 c #957046",
"9 c #957248",
"0 c #9B764B",
"q c #9E784D",
"w c #A1794E",
"e c #A37E51",
"r c #A87F51",
"t c #A28053",
"y c #AE8354",
"u c #AF8B5B",
"i c #B18556",
"p c #B68D5C",
"a c #AC9767",
"s c #BD9361",
"d c #B79968",
"f c #BCA266",
"g c #B4A06E",
"h c #BAA26A",
"j c #B6A270",
"k c #BFA270",
"l c #BFA975",
"z c #C7A764",
"x c #CFAC66",
"c c #C1A76E",
"v c #C2A86E",
"b c #CDAE6F",
"n c #D2B06C",
"m c #C5A470",
"M c #C5AB76",
"N c #CBAB72",
"B c #C7AC78",
"V c #C9AE79",
"C c #CCB27C",
"Z c #D2B273",
"A c #DBBA76",
"S c #D2B57D",
"D c #D4B87F",
"F c #DCBB7B",
"G c #D7BB82",
"H c #DBBD83",
"J c #E3C385",
"K c #E7C689",
"L c #E7C88C",
"P c #EBCB8A",
"I c None",
/* pixels */
"IIIIIIIIIIIIIIIIIIIIIIIIIIIIIIIIIIIIIIIIIIIIIIII",
"IIIIIIIIIIIIIIIIIIIIIIIIIIIIIIIIIIIIIIIIIIIIIIII",
"IIIIIIIIIIIIIIIIIIIIIIIIIIIIIIIIIIIIIIIIIIIIIIII",
"IIIIIIIIIIIIIIIIIIIIIIIIIIIIIIIIIIIIIIIIIIIIIIII",
"IIIIIIIIIIIIIIIIIIIIIIIIIIIIIIIIIIIIIIIIIIIIIIII",
"IIIIIIIIIIIIIIIIIIIIIIIIIIIIIIIIIIIIIIIIIIIIIIII",
"IIIIIIIIIIIIIIIIIIIIIBBMjggIIIIIIIIIIIIIIIIIIIII",
"IIIIIIIIIIIIIIIIIIIIVSSVBcfgIIIIIIIIIIIIIIIIIIII",
"IIIIIIIIIIIIIIIIIIIBSHHDCbzhgIIIIIIIIIIIIIIIIIII",
"IIIIIIIIIIIIIIIIIIMGGGHGlBZzfgIIIIIIIIIIIIIIIIII",
"IIIIIIIIIIIIIIIIIIBHJZFKGCMbvjIIIIIIIIIIIIIIIIII",
"IIIIIIIIIIIIIIIIIIcGPnAPPSlSMaIIIIIIIIIIIIIIIIII",
"IIIIIIIIIIIIIIIIIIeNPJZxxbSHd9IIIIIIIIIIIIIIIIII",
"IIIIIIIIIIIIIIIIII7uSLKAFHGm0,IIIIIIIIIIIIIIIIII",
"IIIIIIIIIIIIIIIIII49pFPJJHNe<&IIIIIIIIIIIIIIIIII",
"IIIIIIIIIIIIIIIIII<6wpsptte2*@IIIIIIIIIIIIIIIIII",
"IIIIIIIIIIIIIIIIII<3wrrw227<%+IIIIIIIIIIIIIIIIII",
"IIIIIIIIIIIIIIIIII,3wyr0224<=+IIIIIIIIIIIIIIIIII",
"IIIIIIIIIIIIIIIIII,3wrr03331=+IIIIIIIIIIIIIIIIII",
"IIIIIIIIIIIIIIIIII<6wir8223<=+IIIIIIIIIIIIIIIIII",
"IIIIIIIIIIIIIIIIII,3wyr81241=+IIIIIIIIIIIIIIIIII",
"IIIIIIIIIIIIIIIIII*2wyr0654<&#:<<,,1421666666666",
"IIIIIIIIIIIIIIIIII:2wyr0664<=#>123390999qq9q00q0",
"IIIIIIIIIIIIIIIIII,3wrr8665<=#;16wyiyiiiiiiiiiii",
"IIIIIIIIIIIIIIIIII-<7yw61231&+*17wiiwyiiiiiiiiii",
"IIIIIIIIIIIIIIIIII*,6w3::<2:%+*:370099qqqqqwqqqq",
"IIIIIIIIIIIIIIIIII%,662-;::-$@%-,,15326244444444",
"IIIIIIIIIIIIIIIIII+>41274,;*$++%--:<1<<1<<<<<1<<",
"IIIIIIIIIIIIIIIIII%>417e9,%*$+O@$$&&========%===",
"IIIIIIIIIIIIIIIIII*>2<7yw>+%%+OOO+OOOOO+O##O++++",
"IIIIIIIIIIIIIIIIII*:<<7yw<+*%OIIIIIIIIIIIIIIIIII",
"IIIIIIIIIIIIIIIIII$*,20yw>@%$OIIIIIIIIIIIIIIIIII",
"IIIIIIIIIIIIIIIIII+*<4qyw>#%%OIIIIIIIIIIIIIIIIII",
"IIIIIIIIIIIIIIIIII*-<<9yw>#%$OIIIIIIIIIIIIIIIIII",
"IIIIIIIIIIIIIIIIII$-<19yw>#%%OIIIIIIIIIIIIIIIIII",
"IIIIIIIIIIIIIIIIII+&<4wyw>#%$+IIIIIIIIIIIIIIIIII",
"IIIIIIIIIIIIIIIIII+$:2qyw>+%%+ IIIIIIIIIIIIIIIII",
"IIIIIIIIIIIIIIIIII+$;4wye>#%#+.IIIIIIIIIIIIIIIII",
"IIIIIIIIIIIIIIIIIIO#-2qyw>#%#+.IIIIIIIIIIIIIIIII",
"IIIIIIIIIIIIIIIIIII#$2wyw>+++oIIIIIIIIIIIIIIIIII",
"IIIIIIIIIIIIIIIIIIII$4qye>+OoIIIIIIIIIIIIIIIIIII",
"IIIIIIIIIIIIIIIIIIIII4qyw>OoIIIIIIIIIIIIIIIIIIII",
"IIIIIIIIIIIIIIIIIIIII60yw>+XIIIIIIIIIIIIIIIIIIII",
"IIIIIIIIIIIIIIIIIIIII6qyw>+IIIIIIIIIIIIIIIIIIIII",
"IIIIIIIIIIIIIIIIIIIII4qiw>#IIIIIIIIIIIIIIIIIIIII",
"IIIIIIIIIIIIIIIIIIIII4qyw>OIIIIIIIIIIIIIIIIIIIII",
"IIIIIIIIIIIIIIIIIIIII6qre>+IIIIIIIIIIIIIIIIIIIII",
"IIIIIIIIIIIIIIIIIIIII6qyq>+IIIIIIIIIIIIIIIIIIIII"
};
