/* XPM */
static char *tile179_png[] = {
/* columns rows colors chars-per-pixel */
"48 48 71 1 ",
"  c #3C2915",
". c #402C17",
"X c #452F19",
"o c #473219",
"O c #4E361C",
"+ c #52391D",
"@ c #5B3F20",
"# c #5E4122",
"$ c #634523",
"% c #674824",
"& c #6A4B26",
"* c #654828",
"= c #6C4D2A",
"- c #704F29",
"; c #73532D",
": c #765733",
"> c #775833",
", c #7B5B35",
"< c #7E5E38",
"1 c #84633C",
"2 c #89673E",
"3 c #8B683F",
"4 c #876740",
"5 c #876841",
"6 c #8A6942",
"7 c #936E44",
"8 c #957046",
"9 c #957248",
"0 c #9B764B",
"q c #9E784D",
"w c #A1794E",
"e c #A47E51",
"r c #A87F51",
"t c #A28053",
"y c #AE8354",
"u c #AF8B5B",
"i c #B18556",
"p c #B68D5C",
"a c #AC9767",
"s c #BD9361",
"d c #B79968",
"f c #BCA266",
"g c #B4A06E",
"h c #BAA26A",
"j c #B6A270",
"k c #BFA270",
"l c #BFA975",
"z c #C7A764",
"x c #CFAC66",
"c c #C1A76E",
"v c #C2A86E",
"b c #CDAE6F",
"n c #D2B06C",
"m c #C5A470",
"M c #C5AB76",
"N c #CBAB72",
"B c #C7AC78",
"V c #C9AE79",
"C c #CCB27C",
"Z c #D2B273",
"A c #DBBA76",
"S c #D2B57D",
"D c #D4B87F",
"F c #DCBB7B",
"G c #D7BB82",
"H c #DBBD83",
"J c #E3C385",
"K c #E7C689",
"L c #E7C88C",
"P c #EBCB8A",
"I c None",
/* pixels */
"IIIIIIIIIIIIIIIIIIIIIIIIIIIIIIIIIIIIIIIIIIIIIIII",
"IIIIIIIIIIIIIIIIIIIIIIIIIIIIIIIIIIIIIIIIIIIIIIII",
"IIIIIIIIIIIIIIIIIIIIIIIIIIIIIIIIIIIIIIIIIIIIIIII",
"IIIIIIIIIIIIIIIIIIIIIIIIIIIIIIIIIIIIIIIIIIIIIIII",
"IIIIIIIIIIIIIIIIIIIIIIIIIIIIIIIIIIIIIIIIIIIIIIII",
"IIIIIIIIIIIIIIIIIIIIIIIIIIIIIIIIIIIIIIIIIIIIIIII",
"IIIIIIIIIIIIIIIIIIIIIBBMjggIIIIIIIIIIIIIIIIIIIII",
"IIIIIIIIIIIIIIIIIIIIVSSVBcfgIIIIIIIIIIIIIIIIIIII",
"IIIIIIIIIIIIIIIIIIIBCHGGCbzhgIIIIIIIIIIIIIIIIIII",
"IIIIIIIIIIIIIIIIIIMGHGHGlBZzfgIIIIIIIIIIIIIIIIII",
"IIIIIIIIIIIIIIIIIIBHKZAKGCMbvjIIIIIIIIIIIIIIIIII",
"IIIIIIIIIIIIIIIIIImGKnAPPSlSMaIIIIIIIIIIIIIIIIII",
"IIIIIIIIIIIIIIIIIIeNPJZxxnDHd9IIIIIIIIIIIIIIIIII",
"IIIIIIIIIIIIIIIIII7uSLKAFHGv0>IIIIIIIIIIIIIIIIII",
"IIIIIIIIIIIIIIIIII49pFKJJHBw>%IIIIIIIIIIIIIIIIII",
"IIIIIIIIIIIIIIIIII,6epspete1=@IIIIIIIIIIIIIIIIII",
"IIIIIIIIIIIIIIIIII>3wrrw1261$+IIIIIIIIIIIIIIIIII",
"IIIIIIIIIIIIIIIIII>3wyr8114,*+IIIIIIIIIIIIIIIIII",
"IIIIIIIIIIIIIIIIII>3wrr0233,*+IIIIIIIIIIIIIIIIII",
"IIIIIIIIIIIIIIIIII>3wyr8113,*+IIIIIIIIIIIIIIIIII",
"IIIIIIIIIIIIIIIIII>2wrr0114<*+IIIIIIIIIIIIIIIIII",
"66666666661<11>,,>-1wyr8454,*+IIIIIIIIIIIIIIIIII",
"0q0qq00q0q87007631>1wyr0664,*+IIIIIIIIIIIIIIIIII",
"iiiyiiiiiiiiiirew8,1wyr8664,*+IIIIIIIIIIIIIIIIII",
"iiiiiiiiiiiyeeirr8;>7yw6112,*+IIIIIIIIIIIIIIIIII",
"qqqqqqqqqqqq80qe81;>606;;>1>$OIIIIIIIIIIIIIIIIII",
"54444644544444411;*>66,;=;;&#+IIIIIIIIIIIIIIIIII",
",<><<><,,,,,,<>;-%@;41373>=&#OIIIIIIIIIIIIIIIIII",
"*%*********%**%####>4<7w9:#%#OIIIIIIIIIIIIIIIIII",
"++++++++++++++++++%>1<7ye:@%$OIIIIIIIIIIIIIIIIII",
"IIIIIIIIIIIIIIIIII%;,>7yq:@%$OIIIIIIIIIIIIIIIIII",
"IIIIIIIIIIIIIIIIII#=>10yw:+%#OIIIIIIIIIIIIIIIIII",
"IIIIIIIIIIIIIIIIII@*,4qyw:@%#OIIIIIIIIIIIIIIIIII",
"IIIIIIIIIIIIIIIIII*=>,8yw>@%*OIIIIIIIIIIIIIIIIII",
"IIIIIIIIIIIIIIIIII#=<19yq:+$#OIIIIIIIIIIIIIIIIII",
"IIIIIIIIIIIIIIIIIIO*>4qyq:@%$OIIIIIIIIIIIIIIIIII",
"IIIIIIIIIIIIIIIIII@#-2wyw:@$@@ IIIIIIIIIIIIIIIII",
"IIIIIIIIIIIIIIIIIIO#-4qyw:@%@oXIIIIIIIIIIIIIIIII",
"IIIIIIIIIIIIIIIIIIO#=1qyw:@#@O.IIIIIIIIIIIIIIIII",
"IIIIIIIIIIIIIIIIIII+#<qyw:@O@XIIIIIIIIIIIIIIIIII",
"IIIIIIIIIIIIIIIIIIII#4qye>+OoIIIIIIIIIIIIIIIIIII",
"IIIIIIIIIIIIIIIIIIIII4qyw:OoIIIIIIIIIIIIIIIIIIII",
"IIIIIIIIIIIIIIIIIIIII5qyw:+XIIIIIIIIIIIIIIIIIIII",
"IIIIIIIIIIIIIIIIIIIII6qyw:+IIIIIIIIIIIIIIIIIIIII",
"IIIIIIIIIIIIIIIIIIIII4qyw:@IIIIIIIIIIIIIIIIIIIII",
"IIIIIIIIIIIIIIIIIIIII4qyw:OIIIIIIIIIIIIIIIIIIIII",
"IIIIIIIIIIIIIIIIIIIII60ye:+IIIIIIIIIIIIIIIIIIIII",
"IIIIIIIIIIIIIIIIIIIII6qyq:+IIIIIIIIIIIIIIIIIIIII"
};
