/* XPM */
static char *tile042_png[] = {
/* columns rows colors chars-per-pixel */
"48 48 66 1 ",
"  c #55410E",
". c #59440F",
"X c #564210",
"o c #5B4610",
"O c #5F4811",
"+ c #664D0E",
"@ c #6C510E",
"# c #74560E",
"$ c #77590B",
"% c #7A5B0B",
"& c #634A12",
"* c #6A4E13",
"= c #6E5114",
"- c #755515",
"; c #795716",
": c #7C5915",
"> c #7C5818",
", c #815F0A",
"< c #815D13",
"1 c #8D6906",
"2 c #86620D",
"3 c #8B650C",
"4 c #8E680A",
"5 c #956E05",
"6 c #986F07",
"7 c #916A09",
"8 c #977004",
"9 c #9B7302",
"0 c #9D710A",
"q c #856010",
"w c #8A6311",
"e c #A27602",
"r c #A57902",
"t c #AB7C01",
"y c #A4770B",
"u c #A57A0A",
"i c #A97D08",
"p c #B07F00",
"a c #A87A16",
"s c #AF8007",
"d c #AF800D",
"f c #B58303",
"g c #B98606",
"h c #B4840C",
"j c #BA870A",
"k c #BD8A0B",
"l c #BC8B12",
"z c #C18C0E",
"x c #C38E11",
"c c #C69113",
"v c #C99316",
"b c #CD9817",
"n c #CD961A",
"m c #CF981C",
"M c #D19A1E",
"N c #CF9A21",
"B c #D59D22",
"V c #D7A024",
"C c #D9A226",
"Z c #DDA52A",
"A c #DFA82C",
"S c #E1A92E",
"D c #E5AD32",
"F c #E7B034",
"G c #E8B135",
"H c None",
/* pixels */
"HHHHHHHHHHHHHHHHHHHHH>>-&oHHHHHHHHHHHHHHHHHHHHHH",
"HHHHHHHHHHHHHHHHHHHHr432%$HHHHHHHHHHHHHHHHHHHHHH",
"HHHHHHHHHHHHHHHHeeHkf9ee97qH*+HHHHHHHHHHHHHHHHHH",
"HHHHHHHHHHHHHH9fsfcbcfkzgty<21<*ooHHHHHHHHHHHHHH",
"HHHHHHHHHHHHH9tjcMVZVbzxbbcaye1%$-&HHHHHHHHHHHHH",
"HHHHHHHHHHHHrskmZFGGFAvkASZMcgie0<=+HHHHHHHHHHHH",
"HHHHHHHHH9egcNASFFGGFFVvCDFDZMcke<21<*XHHHHHHHHH",
"HHHHHHHH9efzvCFGFFFGFGAVADGSSVczj0ud7;*&HHHHHHHH",
"HHHHHHHuigcmMBCSGGGGDDSBADDZVBgkvjccd7<**HHHHHHH",
"HHHHHHHNNBZDSCMZSGGSZSBMmCZZBvgkvvvvckr51HHHHHHH",
"HHHHHHHlBAFGGABBBDDDSSSBBBmvvvxvBMBNmzt5$HHHHHHH",
"HHHHHHrlBDGGDABMBSDGGGGDABvjzvvBZZZZNxiw=&HHHHHH",
"HHHHHelBDGGDABmBSDGGGGGGDSBnkgvBZDDDZmc02-OHHHHH",
"HHHHesvCDGGABmmADGGGGGGGDSBMkgMBZGDSSZne3-&.HHHH",
"HHHHtfcMCDABvvBDGGGDDDFDZBBNxkBAZDSZFAmi4:*oHHHH",
"HHH9tffzmZBvjcZDGGGSSFSZZBNBmbBSDASDAZBge1:*oHHH",
"HHH6izcMZSCmxvBZDGSSSSSSBmBBvcmSGSSSZBMjt5-&HHHH",
"HHHepMBDFGDCmnnBSDZSSSSSmmBmzpcBDDSBVBxfe1@+HHHH",
"HH<tcNSGFFFDZcjvBSBSSBBmzzmmzppcMZSBBxfe4<1$oHHH",
"HH<yxBDDSFDSZnxmNBBBmvvcpgzvvccmBBnxzpte634$ooHH",
"HHHezBDSZDSBBBNZBBBBmzzzzgzmCSCCBmxgftett5:*..HH",
"HH<tzBZZZZBmnBZSDDDSBvzzzmBSDDSMmbvxfftr95*o+HHH",
"HH<epvMBBBMnBZSGDSGSCCmzcBDGGDSCBBMbzgt913%#*&HH",
"HH<7rpxvnnvnBSGDSSDSSSBmnSDGGDDSBBMcvzfr4,64-&HH",
"HHH<4efxnnxxBDFSSDSZCSMmMCSDDSCBvkgggzxfe594-&HH",
"HH<334efxpppnZSZSSCBMCnxMSBSCCSSNvxgfgzft84:*=HH",
"HH<54q5rtetjvBBBCCCBMBczBCBMMSSSZCBvgffpr5<=&-HH",
"HH<68589etpzvmmmMCMMCMvnCBMBSSSSDACBvkpe95:;-&HH",
"HH<5rr99pzppzxvzvBBmcvccMMBCSGSSAZCBmkr9733q-OHH",
"HH:7rfrrpccppzcgzvBcgzzpcMCCSDDSCCBvvd853272-&HH",
"HH&:0ffeepxxgpzxzznnczppzzMCCSSCCmmcj0:<472-&oHH",
"HH&-7rtrttpztppgzxMBMvxzzzxMBBMmcxjht53358:*ooHH",
"HH&-259rt9eterpfzmBBZCNnvzgxvvxkppte988994:*OHHH",
"HHH&-q599q4ettepzbMBBBmcjzcggfrtffpt94q54:*=-&HH",
"HHHH&=258427ee9fgxbvvmczzzzttprtrtte7<:84-==*&HH",
"HHHH&&-2594<759tpgxjfxkgcjt6eppr9967<:273:-*.HHH",
"HHHo*-*=2597,<<9tffteffffp9<4e99994<:37q:-*OoHHH",
"HHHH**o*:2444<:w8ttrrrrrte64333333<>>q3:-*ooHHHH",
"HHHHHoo*;>>:12;>355rt99955653<<::;;:>;--*ooHHHHH",
"HHHHHHoo&;::<-*-:q:7e995,<<<3553-&=::=&&&.oHHHHH",
"HHHHHHHoo*-;****->>q3333<>-=:44<;====&.oo.HHHHHH",
"HHHHHHHHoo*-&*-*=---:>>:;--&=:----*oo. ooHHHHHHH",
"HHHHHHHHHH&&oO&-=&&=>:>-&&&-:-*&&&o.o.HHHHHHHHHH",
"HHHHHHHHHHHHHH.*&.o&=*=*ooO*=*oXooHHHHHHHHHHHHHH",
"HHHHHHHHHHHHHHHooXoooooooooooo .oHHHHHHHHHHHHHHH",
"HHHHHHHHHHHHHHHHHHHHHHHHHHHHHHHHHHHHHHHHHHHHHHHH",
"HHHHHHHHHHHHHHHHHHHHHHHHHHHHHHHHHHHHHHHHHHHHHHHH",
"HHHHHHHHHHHHHHHHHHHHHHHHHHHHHHHHHHHHHHHHHHHHHHHH"
};
