/* XPM */
static char *tile184_png[] = {
/* columns rows colors chars-per-pixel */
"48 48 71 1 ",
"  c #442F18",
". c #4E371C",
"X c #4F381C",
"o c #50371C",
"O c #52391D",
"+ c #583E1F",
"@ c #593F20",
"# c #5D4121",
"$ c #644624",
"% c #654826",
"& c #694A26",
"* c #654828",
"= c #6D4E29",
"- c #704F29",
"; c #6F502B",
": c #72522C",
"> c #6E5130",
", c #765631",
"< c #7B5B35",
"1 c #7F5E38",
"2 c #84633C",
"3 c #89673F",
"4 c #8B683F",
"5 c #876740",
"6 c #8A6A42",
"7 c #916E45",
"8 c #967146",
"9 c #967248",
"0 c #9B764B",
"q c #9E784D",
"w c #A17A4E",
"e c #A37E51",
"r c #A87F51",
"t c #A28053",
"y c #AD8254",
"u c #AF8B5B",
"i c #B18556",
"p c #B68D5C",
"a c #AC9767",
"s c #BD9361",
"d c #B79968",
"f c #BCA266",
"g c #B4A06E",
"h c #BAA26A",
"j c #B6A270",
"k c #BFA270",
"l c #BFA975",
"z c #C7A764",
"x c #CFAC66",
"c c #C1A76E",
"v c #C2A86E",
"b c #CDAE6F",
"n c #D2B06C",
"m c #C5A470",
"M c #C5AB76",
"N c #CBAB72",
"B c #C7AC78",
"V c #C9AE79",
"C c #CCB27C",
"Z c #D2B273",
"A c #DBBA76",
"S c #D2B57D",
"D c #D4B87F",
"F c #DCBB7B",
"G c #D7BB82",
"H c #DBBD83",
"J c #E3C385",
"K c #E7C689",
"L c #E7C88C",
"P c #EBCB8A",
"I c None",
/* pixels */
"IIIIIIIIIIIIIIIIIIIIIIIIIIIIIIIIIIIIIIIIIIIIIIII",
"IIIIIIIIIIIIIIIIIIIIIIIIIIIIIIIIIIIIIIIIIIIIIIII",
"IIIIIIIIIIIIIIIIIIIIIIIIIIIIIIIIIIIIIIIIIIIIIIII",
"IIIIIIIIIIIIIIIIIIIIIIIIIIIIIIIIIIIIIIIIIIIIIIII",
"IIIIIIIIIIIIIIIIIIIIIIIIIIIIIIIIIIIIIIIIIIIIIIII",
"IIIIIIIIIIIIIIIIIIIIIIIIIIIIIIIIIIIIIIIIIIIIIIII",
"IIIIIIIIIIIIIIIIIIIIIBBMjggIIIIIIIIIIIIIIIIIIIII",
"IIIIIIIIIIIIIIIIIIIIVSSVBcfgIIIIIIIIIIIIIIIIIIII",
"IIIIIIIIIIIIIIIIIIIBSHHDCbzhgIIIIIIIIIIIIIIIIIII",
"IIIIIIIIIIIIIIIIIIMGGGHGlBZzfgIIIIIIIIIIIIIIIIII",
"IIIIIIIIIIIIIIIIIIBHJZFKGCMbvjIIIIIIIIIIIIIIIIII",
"IIIIIIIIIIIIIIIIIImGPnAPPSlSMaIIIIIIIIIIIIIIIIII",
"IIIIIIIIIIIIIIIIIIeNPJZxxbSHd7IIIIIIIIIIIIIIIIII",
"IIIIIIIIIIIIIIIIII7uSLKAAJGm0<IIIIIIIIIIIIIIIIII",
"IIIIIIIIIIIIIIIIII59pFKJJGNe<%IIIIIIIIIIIIIIIIII",
"IIIIIIIIIIIIIIIIII<6epspttt2&+IIIIIIIIIIIIIIIIII",
"IIIIIIIIIIIIIIIIII<3wrrw227<$OIIIIIIIIIIIIIIIIII",
"IIIIIIIIIIIIIIIIII<3wir8225<*OIIIIIIIIIIIIIIIIII",
"IIIIIIIIIIIIIIIIII,3wrr0343<*OIIIIIIIIIIIIIIIIII",
"IIIIIIIIIIIIIIIIII<3wir8225<*OIIIIIIIIIIIIIIIIII",
"IIIIIIIIIIIIIIIIII,3wrr8125<*OIIIIIIIIIIIIIIIIII",
"66665666662<32<<<,-2wiy8665<*@:<<,<<52<566566666",
"0q000q0q0q88087542:2wyr0665<*#,123780980q00q00q0",
"iiiiiiiiiiiiriieq8220yr8665<*@>170riyiiiiiiiiiii",
"iiiiiiiiiiiywriyr7,<7rr8125<*@*<7yiywriiiiiiiiii",
"qqqqqqqqqqqq99qw92-,7we0555,#@$,270090qqqqqqqqqq",
"55555555555555522:&,7qw9665;#+$;,,25255555555555",
"<1<<<1<<1<<<<1<:-&@>7rr9122=#OO$==:<<1<<<<<1<<1<",
"**************$$@@#,7we9522:#OO+##*************$",
"OOOOOOOOOOOOOOOOO+&,60w9662:#o......X.XOOOOOOOOO",
"IIIIIIIIIIIIIIIIII&:28w9222:#.IIIIIIIIIIIIIIIIII",
"IIIIIIIIIIIIIIIIII@&<9q8<22:#.IIIIIIIIIIIIIIIIII",
"IIIIIIIIIIIIIIIIII@*18q8<12:#.IIIIIIIIIIIIIIIIII",
"IIIIIIIIIIIIIIIIII$=<690222;#XIIIIIIIIIIIIIIIIII",
"IIIIIIIIIIIIIIIIII#&<598<12:#OIIIIIIIIIIIIIIIIII",
"IIIIIIIIIIIIIIIIII@*<596:,2:#XIIIIIIIIIIIIIIIIII",
"IIIIIIIIIIIIIIIIIIO#:562;:<-#oIIIIIIIIIIIIIIIIII",
"IIIIIIIIIIIIIIIIIIO#;162;::=#o IIIIIIIIIIIIIIIII",
"IIIIIIIIIIIIIIIIIIO#&:22=::&#oIIIIIIIIIIIIIIIIII",
"IIIIIIIIIIIIIIIIIIIO#&:<=&=#OXIIIIIIIIIIIIIIIIII",
"IIIIIIIIIIIIIIIIIIIIO#&;$##O.IIIIIIIIIIIIIIIIIII",
"IIIIIIIIIIIIIIIIIIIIIO#$OOOXIIIIIIIIIIIIIIIIIIII",
"IIIIIIIIIIIIIIIIIIIIIIIIIIIIIIIIIIIIIIIIIIIIIIII",
"IIIIIIIIIIIIIIIIIIIIIIIIIIIIIIIIIIIIIIIIIIIIIIII",
"IIIIIIIIIIIIIIIIIIIIIIIIIIIIIIIIIIIIIIIIIIIIIIII",
"IIIIIIIIIIIIIIIIIIIIIIIIIIIIIIIIIIIIIIIIIIIIIIII",
"IIIIIIIIIIIIIIIIIIIIIIIIIIIIIIIIIIIIIIIIIIIIIIII",
"IIIIIIIIIIIIIIIIIIIIIIIIIIIIIIIIIIIIIIIIIIIIIIII"
};
