/* XPM */
static char *tile176_png[] = {
/* columns rows colors chars-per-pixel */
"48 48 254 2 ",
"   c #3D2A15",
".  c #412D17",
"X  c #422D17",
"o  c #49311A",
"O  c #4A331B",
"+  c #4A341B",
"@  c #4D351A",
"#  c #4E361C",
"$  c #4E371C",
"%  c #4F371C",
"&  c #50371C",
"*  c #50381D",
"=  c #51381D",
"-  c #51391D",
";  c #52381D",
":  c #52391D",
">  c #53391D",
",  c #533A1D",
"<  c #553B1E",
"1  c #563C1E",
"2  c #563C1F",
"3  c #5B3F20",
"4  c #5D4120",
"5  c #5D4121",
"6  c #5E4221",
"7  c #5E4222",
"8  c #5F4222",
"9  c #5F4322",
"0  c #5F4425",
"q  c #5E4426",
"w  c #604322",
"e  c #634523",
"r  c #654723",
"t  c #624525",
"y  c #634726",
"u  c #664724",
"i  c #674824",
"p  c #644827",
"a  c #684925",
"s  c #6A4A25",
"d  c #6B4A25",
"f  c #6B4B26",
"g  c #6D4D27",
"h  c #61492A",
"j  c #654928",
"k  c #664928",
"l  c #674A28",
"z  c #694B29",
"x  c #6B4D2A",
"c  c #6D4D28",
"v  c #6C4D29",
"b  c #6C4E2A",
"n  c #70502A",
"m  c #72512B",
"M  c #70502C",
"N  c #71512C",
"B  c #72522C",
"V  c #73532E",
"C  c #74542E",
"Z  c #75552F",
"A  c #705330",
"S  c #745431",
"D  c #765631",
"F  c #775731",
"G  c #745632",
"H  c #765733",
"J  c #765734",
"K  c #775734",
"L  c #775833",
"P  c #785832",
"I  c #795933",
"U  c #7A5933",
"Y  c #7B5933",
"T  c #785834",
"R  c #7A5A34",
"E  c #7B5B35",
"W  c #7B5C35",
"Q  c #7C5C36",
"!  c #7D5C36",
"~  c #7D5D36",
"^  c #7E5E38",
"/  c #7F5F38",
"(  c #806039",
")  c #816039",
"_  c #836139",
"`  c #80603A",
"'  c #84623B",
"]  c #86633B",
"[  c #81623C",
"{  c #80633D",
"}  c #82623C",
"|  c #83633C",
" . c #82633E",
".. c #83643D",
"X. c #86643C",
"o. c #87653D",
"O. c #84643E",
"+. c #85653E",
"@. c #85653F",
"#. c #86653E",
"$. c #87653E",
"%. c #87663F",
"&. c #88653D",
"*. c #88663D",
"=. c #89673E",
"-. c #8A673F",
";. c #866740",
":. c #876740",
">. c #876741",
",. c #876841",
"<. c #886841",
"1. c #886842",
"2. c #896942",
"3. c #8A6942",
"4. c #8A6A43",
"5. c #8C6940",
"6. c #8D6A42",
"7. c #8D6C44",
"8. c #8E6D45",
"9. c #916C42",
"0. c #916D44",
"q. c #926E46",
"w. c #956F44",
"e. c #966F45",
"r. c #8F7249",
"t. c #937047",
"y. c #977146",
"u. c #967248",
"i. c #977248",
"p. c #93744B",
"a. c #987349",
"s. c #9A7349",
"d. c #997449",
"f. c #9A7449",
"g. c #98744A",
"h. c #9A754A",
"j. c #9B764B",
"k. c #9C754A",
"l. c #9E764B",
"z. c #9D774C",
"x. c #9E774C",
"c. c #9B794D",
"v. c #9E784C",
"b. c #9E784D",
"n. c #9F784D",
"m. c #9F794D",
"M. c #9F794E",
"N. c #A0784C",
"B. c #A0794D",
"V. c #A1794E",
"C. c #A17A4E",
"Z. c #A17D50",
"A. c #A17D51",
"S. c #A07F53",
"D. c #A37F52",
"F. c #A47D50",
"G. c #A67D51",
"H. c #A77E51",
"J. c #A87E51",
"K. c #A87F51",
"L. c #A87F52",
"P. c #A28053",
"I. c #A48053",
"U. c #AB8052",
"Y. c #AB8153",
"T. c #AC8052",
"R. c #AD8153",
"E. c #AD8254",
"W. c #AE8254",
"Q. c #AE8354",
"!. c #AF8B5B",
"~. c #B1895A",
"^. c #B68D5C",
"/. c #B78D5C",
"(. c #B68E5D",
"). c #A18D60",
"_. c #A99465",
"`. c #AB9666",
"'. c #AE9A68",
"]. c #BD9361",
"[. c #B39B6A",
"{. c #B79968",
"}. c #B09D6D",
"|. c #BBA166",
" X c #B4A16F",
".X c #BAA26A",
"XX c #BEA468",
"oX c #BCA06E",
"OX c #BFA270",
"+X c #BEA874",
"@X c #BFA975",
"#X c #C7A764",
"$X c #CFAC65",
"%X c #CFAC66",
"&X c #C2A86E",
"*X c #CCAD6F",
"=X c #CDAE6F",
"-X c #D2B06C",
";X c #C0A370",
":X c #C5A470",
">X c #C3AA70",
",X c #C2A974",
"<X c #C6AB77",
"1X c #C5AC75",
"2X c #C9A871",
"3X c #CEAF70",
"4X c #CAAA75",
"5X c #C7AF79",
"6X c #C8AD79",
"7X c #C9AE79",
"8X c #CAAE7A",
"9X c #CCB27B",
"0X c #C9B27C",
"qX c #CEB27C",
"wX c #CFB47D",
"eX c #D1B272",
"rX c #D4B372",
"tX c #D0B275",
"yX c #D9B874",
"uX c #DDBC77",
"iX c #D6B179",
"pX c #D0B67C",
"aX c #D2B57F",
"sX c #D1B67E",
"dX c #D2B67F",
"fX c #D4B87F",
"gX c #DEBC78",
"hX c #DBBB7C",
"jX c #DCB97E",
"kX c #D4B881",
"lX c #D7BA81",
"zX c #D7BB82",
"xX c #D6BD83",
"cX c #D8BB82",
"vX c #D9BB82",
"bX c #DFBF80",
"nX c #DCBD82",
"mX c #D9BC84",
"MX c #DABD84",
"NX c #DBBD84",
"BX c #DCBF85",
"VX c #E0C084",
"CX c #E0C184",
"ZX c #E4C387",
"AX c #E5C584",
"SX c #E4C587",
"DX c #E7C689",
"FX c #E7C88B",
"GX c #E6C88C",
"HX c #E9C988",
"JX c #EACA88",
"KX c #EACB89",
"LX c #EDCE8F",
"PX c None",
/* pixels */
"PXPXPXPXPXPXPXPXPXPXPXPXPXPXPXPXPXPXPXPXPX2.z.Q.V.J = PXPXPXPXPXPXPXPXPXPXPXPXPXPXPXPXPXPXPXPXPX",
"PXPXPXPXPXPXPXPXPXPXPXPXPXPXPXPXPXPXPXPXPX2.z.Q.V.J = PXPXPXPXPXPXPXPXPXPXPXPXPXPXPXPXPXPXPXPXPX",
"PXPXPXPXPXPXPXPXPXPXPXPXPXPXPXPXPXPXPXPXPX2.z.Q.V.J = PXPXPXPXPXPXPXPXPXPXPXPXPXPXPXPXPXPXPXPXPX",
"PXPXPXPXPXPXPXPXPXPXPXPXPXPXPXPXPXPXPXPXPX2.z.Q.V.J = PXPXPXPXPXPXPXPXPXPXPXPXPXPXPXPXPXPXPXPXPX",
"PXPXPXPXPXPXPXPXPXPXPXPXPXPXPXPXPXPXPXPXPX>.k.R.V.S @ PXPXPXPXPXPXPXPXPXPXPXPXPXPXPXPXPXPXPXPXPX",
"PXPXPXPXPXPXPXPXPXPXPXPXPXPXPXPXPXPXPXPXPXp.I.~.D.{ h PXPXPXPXPXPXPXPXPXPXPXPXPXPXPXPXPXPXPXPXPX",
"PXPXPXPXPXPXPXPXPXPXPXPXPXPXPXPXPXPXPXPXPXoX;X;X[._.).PXPXPXPXPXPXPXPXPXPXPXPXPXPXPXPXPXPXPXPXPX",
"PXPXPXPXPXPXPXPXPXPXPXPXPXPXPXPXPXPXPXPX8XkXdX9X0X&XXX'.PXPXPXPXPXPXPXPXPXPXPXPXPXPXPXPXPXPXPXPX",
"PXPXPXPXPXPXPXPXPXPXPXPXPXPXPXPXPXPXPX8XqXnXNXfXqX=X#X.X'.PXPXPXPXPXPXPXPXPXPXPXPXPXPXPXPXPXPXPX",
"PXPXPXPXPXPXPXPXPXPXPXPXPXPXPXPXPXPX<XdXNXkXNXxX@X1XtX#X|.'.PXPXPXPXPXPXPXPXPXPXPXPXPXPXPXPXPXPX",
"PXPXPXPXPXPXPXPXPXPXPXPXPXPXPXPXPXPX8XNXDXeXhXGXxX0X1X*X&X XPXPXPXPXPXPXPXPXPXPXPXPXPXPXPXPXPXPX",
"PXPXPXPXPXPXPXPXPXPXPXPXPXPXPXPXPXPXoXxXJX-XyXJXJXpX+XdX,X'.PXPXPXPXPXPXPXPXPXPXPXPXPXPXPXPXPXPX",
"PXPXPXPXPXPXPXPXPXPXPXPXPXPXPXPXPXPXD.2XLXVXrX%X%XeXdXBX{.r.PXPXPXPXPXPXPXPXPXPXPXPXPXPXPXPXPXPX",
"PXPXPXPXPXPXPXPXPXPXPXPXPXPXPXPXPXPXq.!.iXDXAXgXgXhXxX:Xc.L PXPXPXPXPXPXPXPXPXPXPXPXPXPXPXPXPXPX",
"PXPXPXPXPXPXPXPXPXPXPXPXPXPXPXPXPXPX>.y.(.jXDXZXVXnX4XC.Y r PXPXPXPXPXPXPXPXPXPXPXPXPXPXPXPXPXPX",
"PXPXPXPXPXPXPXPXPXPXPXPXPXPXPXPXPXPX~ 2.F./.].(.S.P.D.X.z < PXPXPXPXPXPXPXPXPXPXPXPXPXPXPXPXPXPX",
"PXPXPXPXPXPXPXPXPXPXPXPXPXPXPXPXPXPXY =.V.U.U.k.| X.2.~ j = PXPXPXPXPXPXPXPXPXPXPXPXPXPXPXPXPXPX",
"PXPXPXPXPXPXPXPXPXPXPXPXPXPXPXPXPXPXR =.V.R.U.y._ ..>.~ j & PXPXPXPXPXPXPXPXPXPXPXPXPXPXPXPXPXPX",
"PXPXPXPXPXPXPXPXPXPXPXPXPXPXPXPXPXPXY =.V.R.K.d.2.>.>.~ j = PXPXPXPXPXPXPXPXPXPXPXPXPXPXPXPXPXPX",
"PXPXPXPXPXPXPXPXPXPXPXPXPXPXPXPXPXPXR :.V.R.K.d.X.>.X.~ j = PXPXPXPXPXPXPXPXPXPXPXPXPXPXPXPXPXPX",
"PXPXPXPXPXPXPXPXPXPXPXPXPXPXPXPXPXPXS =.V.R.I.i._ { :.Q j = PXPXPXPXPXPXPXPXPXPXPXPXPXPXPXPXPXPX",
"PXPXPXPXPXPXPXPXPXPXPXPXPXPXPXPXPXPXg _ V.Q.U.d.2.:.:.Q j % PXPXPXPXPXPXPXPXPXPXPXPXPXPXPXPXPXPX",
"PXPXPXPXPXPXPXPXPXPXPXPXPXPXPXPXPXPXB ] V.Q.U.d.q.2.:.~ j % PXPXPXPXPXPXPXPXPXPXPXPXPXPXPXPXPXPX",
"PXPXPXPXPXPXPXPXPXPXPXPXPXPXPXPXPXPXF =.v.R.C.d.2.:.:.~ j % PXPXPXPXPXPXPXPXPXPXPXPXPXPXPXPXPXPX",
"PXPXPXPXPXPXPXPXPXPXPXPXPXPXPXPXPXPXv R t.Q.V.5._ { X.~ j % PXPXPXPXPXPXPXPXPXPXPXPXPXPXPXPXPXPX",
"PXPXPXPXPXPXPXPXPXPXPXPXPXPXPXPXPXPXs Y 7.k.5.S M Y _ Z t * PXPXPXPXPXPXPXPXPXPXPXPXPXPXPXPXPXPX",
"PXPXPXPXPXPXPXPXPXPXPXPXPXPXPXPXPXPXi L 2.,.Q m M Z S g 7 % PXPXPXPXPXPXPXPXPXPXPXPXPXPXPXPXPXPX",
"PXPXPXPXPXPXPXPXPXPXPXPXPXPXPXPXPXPX< A ,.^ =.q.=.S g g 7 % PXPXPXPXPXPXPXPXPXPXPXPXPXPXPXPXPXPX",
"PXPXPXPXPXPXPXPXPXPXPXPXPXPXPXPXPXPX7 G >.R 7.F.i.J 7 u 7 % PXPXPXPXPXPXPXPXPXPXPXPXPXPXPXPXPXPX",
"PXPXPXPXPXPXPXPXPXPXPXPXPXPXPXPXPXPXs Y ;.Q e.R.Z.G 3 u w % PXPXPXPXPXPXPXPXPXPXPXPXPXPXPXPXPXPX",
"PXPXPXPXPXPXPXPXPXPXPXPXPXPXPXPXPXPXs B R R e.Q.V.J 3 u 7 % PXPXPXPXPXPXPXPXPXPXPXPXPXPXPXPXPXPX",
"PXPXPXPXPXPXPXPXPXPXPXPXPXPXPXPXPXPX5 v R _ s.Q.V.J < u w % PXPXPXPXPXPXPXPXPXPXPXPXPXPXPXPXPXPX",
"PXPXPXPXPXPXPXPXPXPXPXPXPXPXPXPXPXPX< j ~ X.z.Q.V.J 3 t w @ PXPXPXPXPXPXPXPXPXPXPXPXPXPXPXPXPXPX",
"PXPXPXPXPXPXPXPXPXPXPXPXPXPXPXPXPXPXs M R Q y.Q.V.J < u 9 % PXPXPXPXPXPXPXPXPXPXPXPXPXPXPXPXPXPX",
"PXPXPXPXPXPXPXPXPXPXPXPXPXPXPXPXPXPX7 b Q / d.Q.V.J 3 t w % PXPXPXPXPXPXPXPXPXPXPXPXPXPXPXPXPXPX",
"PXPXPXPXPXPXPXPXPXPXPXPXPXPXPXPXPXPX= y R ,.v.Q.V.J < r 9 = PXPXPXPXPXPXPXPXPXPXPXPXPXPXPXPXPXPX",
"PXPXPXPXPXPXPXPXPXPXPXPXPXPXPXPXPXPX= 9 B X.v.Q.V.J 3 t 7 =   PXPXPXPXPXPXPXPXPXPXPXPXPXPXPXPXPX",
"PXPXPXPXPXPXPXPXPXPXPXPXPXPXPXPXPXPX= 7 M >.v.Q.V.J < i 9 = X PXPXPXPXPXPXPXPXPXPXPXPXPXPXPXPXPX",
"PXPXPXPXPXPXPXPXPXPXPXPXPXPXPXPXPXPX= 7 v ..V.Q.V.J < u 7 @ X PXPXPXPXPXPXPXPXPXPXPXPXPXPXPXPXPX",
"PXPXPXPXPXPXPXPXPXPXPXPXPXPXPXPXPXPXPX= q / v.Q.V.R = < = o PXPXPXPXPXPXPXPXPXPXPXPXPXPXPXPXPXPX",
"PXPXPXPXPXPXPXPXPXPXPXPXPXPXPXPXPXPXPXPXq { V.Q.V.J = * + PXPXPXPXPXPXPXPXPXPXPXPXPXPXPXPXPXPXPX",
"PXPXPXPXPXPXPXPXPXPXPXPXPXPXPXPXPXPXPXPXPX:.v.Q.V.J = + PXPXPXPXPXPXPXPXPXPXPXPXPXPXPXPXPXPXPXPX",
"PXPXPXPXPXPXPXPXPXPXPXPXPXPXPXPXPXPXPXPXPX2.z.Q.V.J = PXPXPXPXPXPXPXPXPXPXPXPXPXPXPXPXPXPXPXPXPX",
"PXPXPXPXPXPXPXPXPXPXPXPXPXPXPXPXPXPXPXPXPX2.z.Q.V.J = PXPXPXPXPXPXPXPXPXPXPXPXPXPXPXPXPXPXPXPXPX",
"PXPXPXPXPXPXPXPXPXPXPXPXPXPXPXPXPXPXPXPXPX2.z.Q.V.L = PXPXPXPXPXPXPXPXPXPXPXPXPXPXPXPXPXPXPXPXPX",
"PXPXPXPXPXPXPXPXPXPXPXPXPXPXPXPXPXPXPXPXPX2.z.Q.V.J = PXPXPXPXPXPXPXPXPXPXPXPXPXPXPXPXPXPXPXPXPX",
"PXPXPXPXPXPXPXPXPXPXPXPXPXPXPXPXPXPXPXPXPX2.v.Q.V.L = PXPXPXPXPXPXPXPXPXPXPXPXPXPXPXPXPXPXPXPXPX",
"PXPXPXPXPXPXPXPXPXPXPXPXPXPXPXPXPXPXPXPXPX2.v.Q.V.L = PXPXPXPXPXPXPXPXPXPXPXPXPXPXPXPXPXPXPXPXPX"
};
