/* XPM */
static char *tile040_png[] = {
/* columns rows colors chars-per-pixel */
"48 48 87 1 ",
"  c #343D36",
". c #363F39",
"X c #3E4B34",
"o c #37413A",
"O c #39433B",
"+ c #3D4A3C",
"@ c #5C7E0D",
"# c #5C7D14",
"$ c #57761E",
"% c #59771F",
"& c #5B7A1C",
"* c #45572C",
"= c #495D2E",
"- c #404F33",
"; c #404E3D",
": c #435434",
"> c #465836",
", c #485B33",
"< c #43533C",
"1 c #47593B",
"2 c #4A5D3C",
"3 c #4C6422",
"4 c #4F6820",
"5 c #4C622D",
"6 c #536E23",
"7 c #546E2B",
"8 c #567323",
"9 c #587621",
"0 c #5F7E20",
"q c #55702B",
"w c #58742B",
"e c #4E6534",
"r c #4D633C",
"t c #516A33",
"y c #506738",
"u c #3D4A40",
"i c #5F830C",
"p c #628707",
"a c #658B03",
"s c #688F04",
"d c #61840C",
"f c #63880B",
"g c #698E0A",
"h c #6C9404",
"j c #6F9802",
"k c #6C930A",
"l c #739C04",
"z c #749B0A",
"x c #799F0E",
"c c #638611",
"v c #6B8F15",
"b c #64851C",
"n c #68891D",
"m c #6E9116",
"M c #709317",
"N c #769C12",
"B c #77A104",
"V c #79A306",
"C c #7BA409",
"Z c #7FA90B",
"A c #7EA411",
"S c #749429",
"D c #82AA0D",
"F c #88B00F",
"G c #81A713",
"H c #85AD11",
"J c #89AF16",
"K c #87AE19",
"L c #87B011",
"P c #8AB215",
"I c #8EB519",
"U c #8FB81A",
"Y c #90B71B",
"T c #93BA1D",
"R c #97BD21",
"E c #98BF23",
"W c #9BC225",
"Q c #9FC529",
"! c #A0C72A",
"~ c #A3CA2D",
"^ c #A6CD30",
"/ c #A8CF32",
"( c #ABD235",
") c #AFD639",
"_ c #B0D73A",
"` c #B1D83B",
"' c None",
/* pixels */
"'''''''''''''''''''''rr2Oo''''''''''''''''''''''",
"''''''''''''''''''''k99845''''''''''''''''''''''",
"''''''''''''''''hs'DVhsha&t'X:''''''''''''''''''",
"''''''''''''''sllVITPVGJVlmt8#t<oO''''''''''''''",
"'''''''''''''azCIR!~!TPLTTKSmh$65:;'''''''''''''",
"''''''''''''kzHR^```)^UD^(~WIChhft1-''''''''''''",
"'''''''''ahCPW/()````)QT~())~WIDkt6#t<O'''''''''",
"''''''''phVLTQ)``__```^~()_(/~IHGnMN&e;O''''''''",
"'''''''kzCIEEW~(_`_)))/~(()~~WZDYDJIz&t:X'''''''",
"'''''''EEQ^()!E~(``(^^WRW!~~!TZDRYTTIGkd@'''''''",
"'''''''KQ/)``/WW~())((^!WWWITTLTWWWWEFl&5'''''''",
"''''''kGQ)`))/QEW/)`__`)~!TZDTTW~^^~EPNw1+''''''",
"'''''kHW))))/QEQ()_````_)^WTHDUW^()(~RKg61+'''''",
"''''hzY~)))/QER^)_`````)((~RDCT~^))((^Rk$1O.''''",
"''''lCPW^(/QRYW(```)_`_)~~WWLDW^^)(^((Wz&e;O''''",
"'''ahBCLE~QTCI^)```(^)(^~WWQET~()^/)^^WCh&e<O'''",
"'''azHIE~/~THY!/))((((((QWWWTPW(`(((~!EZj@,+''''",
"'''gGR~(``)~WTT!((~/)^~^TR!EDCPW)`/~!WPVk#*X''''",
"''7kDE/_```)~IDTQ~~^~~!TDLWTDBCPW~~~WPVh$7#3o'''",
"''qgH!__(_)(~TLTWW~~WITICCHYTIITWWTIDVhhc9$*OO''",
"'''sH~_/~)(~~WW~QW~!TZHIZZDT~~~~!RLCVjaljde;O.''",
"''tkHW~~~~!TTW~(())~QTDZIT~/)((WETTPCllhai:OO'''",
"''tkCPE!W!TTW~(`)))(~~TJTW)``)(~WWWTPZla#$6*<O''",
"''t#sVPTTTTT!(_)(~)(^)~TT~)`)))(~WRIYLVh$qd&2+''",
"'''t&hVJTTHDW))^(((~~~WE!~~_)~~~THCCCLIVgia92+''",
"''tw8&sCHAxCE~(^~(~W~~TP~~~~~~(~RIPDVZHCha&e<<''",
"''td&7dhlshCYW~~~~~WE!IDW~!WW~((^~QTDVBlhdt<+1''",
"''tdpdpahlBCYTETW~EW!ETT~WWW()~()^~!TDlhaitr1+''",
"''tdhhsslDDVDITFTWWTITIPWWW~(_(((~QWWGhsi9%q2+''",
"''e#hlhhxIHCBDIDDTWTDPDCLW~~())/~!WTINii97#81+''",
"'';enBlhhVHPCCDIDDTTPZVCCLW~~(~~!WRYDntt9iq1OO''",
"''Or&hlhjhCDllCDHLW~WTLHHHLWWWWEIHGChc98ift+.O''",
"''+16iphldglshlBHE!~~~!TYHDJTUPDVBjsapdap#e<+'''",
"'''O17paf7&slhhBLTT!~WTYDFIDCVklBVlls$7d&e;<1+''",
"''''+17ia%8&hhalDLTTUTIHHJDllljhhjjh&ttd&21<<+''",
"''''++18da&7#dflBCPDVPDCPHjpkllhapp#tr7#8r2;o'''",
"'''O<1+1qdpc7eqflVClhCCVDld7&ssaaa&trw#7y2+OO'''",
"'''';<O<y8%$%ty8chhhhhhhhsa&8888%%trr79t2<Oo''''",
"'''''Oo;rrrt#82r8ddhlapsd@dd%tttr22yrr22<OO'''''",
"''''''OO+2rrt>+2ttt&aaad6ttt%dd82+<yr1+OOoo'''''",
"'''''''oO<2r<<<<1rrt9%98yr2<5$$7r1<<<+.oO.''''''",
"''''''''Oo<1O<1+<22rrrrr222+1rr212<oo..Oo'''''''",
"'''''''''OO+oO+1<++<ryr2;++1r2+++OOooo''''''''''",
"''''''''''''''O<+.o+<<<<O.+;1;oooo''''''''''''''",
"'''''''''''''''O. OOoOoOOOoOOo oo'''''''''''''''",
"''''''''''''''''''''''''''''''''''''''''''''''''",
"''''''''''''''''''''''''''''''''''''''''''''''''",
"''''''''''''''''''''''''''''''''''''''''''''''''"
};
