/* XPM */
static char *tile186_png[] = {
/* columns rows colors chars-per-pixel */
"48 48 69 1 ",
"  c #452F19",
". c #4F371C",
"X c #52391D",
"o c #583E1F",
"O c #573E20",
"+ c #593F21",
"@ c #5E4121",
"# c #644624",
"$ c #644827",
"% c #6A4A26",
"& c #654928",
"* c #6D4D29",
"= c #6F512D",
"- c #71512C",
"; c #765632",
": c #775832",
"> c #7B5B35",
", c #7F5E38",
"< c #84633C",
"1 c #89673E",
"2 c #876740",
"3 c #8A6A42",
"4 c #916E45",
"5 c #8F7249",
"6 c #957146",
"7 c #967248",
"8 c #9B764B",
"9 c #9E784D",
"0 c #A17A4E",
"q c #A37E51",
"w c #A87F51",
"e c #A38053",
"r c #AD8254",
"t c #AF8B5B",
"y c #B18556",
"u c #B58C5C",
"i c #A18D60",
"p c #AA9566",
"a c #AE9A68",
"s c #BD9361",
"d c #B39B6A",
"f c #BBA166",
"g c #B4A16F",
"h c #BCA26B",
"j c #BFA270",
"k c #BFA975",
"l c #C7A764",
"z c #CFAC66",
"x c #C2A86E",
"c c #CDAE6F",
"v c #D2B06C",
"b c #C2A370",
"n c #C4AB74",
"m c #CBAB72",
"M c #C7AF79",
"N c #C9AE79",
"B c #CDB37C",
"V c #D2B273",
"C c #DBBA76",
"Z c #D2B57D",
"A c #D4B87F",
"S c #DCBB7B",
"D c #D6BB82",
"F c #DBBD83",
"G c #E3C385",
"H c #E7C689",
"J c #E7C88C",
"K c #EBCB8A",
"L c None",
/* pixels */
"LLLLLLLLLLLLLLLLLLLLL38rq;.LLLLLLLLLLLLLLLLLLLLL",
"LLLLLLLLLLLLLLLLLLLLL38rq;OLLLLLLLLLLLLLLLLLLLLL",
"LLLLLLLLLLLLLLLLLLLLL39r0;OLLLLLLLLLLLLLLLLLLLLL",
"LLLLLLLLLLLLLLLLLLLLL39r0;.LLLLLLLLLLLLLLLLLLLLL",
"LLLLLLLLLLLLLLLLLLLLL28r9;.LLLLLLLLLLLLLLLLLLLLL",
"LLLLLLLLLLLLLLLLLLLLL7eye,$LLLLLLLLLLLLLLLLLLLLL",
"LLLLLLLLLLLLLLLLLLLLLjjjdpiLLLLLLLLLLLLLLLLLLLLL",
"LLLLLLLLLLLLLLLLLLLLNDDMMnhaLLLLLLLLLLLLLLLLLLLL",
"LLLLLLLLLLLLLLLLLLLNBFFABclgaLLLLLLLLLLLLLLLLLLL",
"LLLLLLLLLLLLLLLLLLnDFDFDknVlfaLLLLLLLLLLLLLLLLLL",
"LLLLLLLLLLLLLLLLLLNFHVSHFMMcxgLLLLLLLLLLLLLLLLLL",
"LLLLLLLLLLLLLLLLLLhDKvCKKZkZnaLLLLLLLLLLLLLLLLLL",
"LLLLLLLLLLLLLLLLLLqmKGVzzcZFd5LLLLLLLLLLLLLLLLLL",
"LLLLLLLLLLLLLLLLLL4tVKHSSFFb8:LLLLLLLLLLLLLLLLLL",
"LLLLLLLLLLLLLLLLLL27uSHGGFmq>#LLLLLLLLLLLLLLLLLL",
"LLLLLLLLLLLLLLLLLL>3eusueeq<%oLLLLLLLLLLLLLLLLLL",
"LLLLLLLLLLLLLLLLLL>10ww0<13>&XLLLLLLLLLLLLLLLLLL",
"LLLLLLLLLLLLLLLLLL>10rw6<<2,&XLLLLLLLLLLLLLLLLLL",
"LLLLLLLLLLLLLLLLLL:10rw8112>$XLLLLLLLLLLLLLLLLLL",
"LLLLLLLLLLLLLLLLLL>10rw6<<2>$XLLLLLLLLLLLLLLLLLL",
"LLLLLLLLLLLLLLLLLL;10rw6<<2,$XLLLLLLLLLLLLLLLLLL",
"LLLLLLLLLLLLLLLLLL%<0rr6222>$O*>>-:>2,,233233332",
"LLLLLLLLLLLLLLLLLL-10rw8332>$O;,<146876888998989",
"LLLLLLLLLLLLLLLLLL:<8yw6332>$O;,48wyryyyyyyyyyyy",
"LLLLLLLLLLLLLLLLLL%>6rw6<,2,$O&>4wyy0wyyyyyyyyyy",
"LLLLLLLLLLLLLLLLLL%:4008222:@O#;<4787808999988q8",
"LLLLLLLLLLLLLLLLLL$;3807322*@X#*::,2<22222223222",
"LLLLLLLLLLLLLLLLLLO;4ww7,<2*@Xo#**:>,>,>>>,>>>>>",
"LLLLLLLLLLLLLLLLLL@;40w72<<*@XXo@@$$$$$$&&&&$$%&",
"LLLLLLLLLLLLLLLLLL%:3706332-@X...X....XXO..OXXXX",
"LLLLLLLLLLLLLLLLLL%-<407<<<-@.LLLLLLLLLLLLLLLLLL",
"LLLLLLLLLLLLLLLLLL@%<786><1*@XLLLLLLLLLLLLLLLLLL",
"LLLLLLLLLLLLLLLLLLO&<496,<<=@.LLLLLLLLLLLLLLLLLL",
"LLLLLLLLLLLLLLLLLL&*,176,<<=o.LLLLLLLLLLLLLLLLLL",
"LLLLLLLLLLLLLLLLLL@*>176:,<-#.LLLLLLLLLLLLLLLLLL",
"LLLLLLLLLLLLLLLLLLX$><74-:<-@XLLLLLLLLLLLLLLLLLL",
"LLLLLLLLLLLLLLLLLLX@-23<--:*@XLLLLLLLLLLLLLLLLLL",
"LLLLLLLLLLLLLLLLLLX@=,3<--:*@X LLLLLLLLLLLLLLLLL",
"LLLLLLLLLLLLLLLLLLX@%-<<*-;%@.LLLLLLLLLLLLLLLLLL",
"LLLLLLLLLLLLLLLLLLLX@%->*%%oX.LLLLLLLLLLLLLLLLLL",
"LLLLLLLLLLLLLLLLLLLLX#%*#++O.LLLLLLLLLLLLLLLLLLL",
"LLLLLLLLLLLLLLLLLLLLLX@&XXXXLLLLLLLLLLLLLLLLLLLL",
"LLLLLLLLLLLLLLLLLLLLLLLLLLLLLLLLLLLLLLLLLLLLLLLL",
"LLLLLLLLLLLLLLLLLLLLLLLLLLLLLLLLLLLLLLLLLLLLLLLL",
"LLLLLLLLLLLLLLLLLLLLLLLLLLLLLLLLLLLLLLLLLLLLLLLL",
"LLLLLLLLLLLLLLLLLLLLLLLLLLLLLLLLLLLLLLLLLLLLLLLL",
"LLLLLLLLLLLLLLLLLLLLLLLLLLLLLLLLLLLLLLLLLLLLLLLL",
"LLLLLLLLLLLLLLLLLLLLLLLLLLLLLLLLLLLLLLLLLLLLLLLL"
};
